<?xml version="1.0" encoding="UTF-8"?>
<svg width="23px" height="23px" viewBox="0 0 23 23" version="1.1" xmlns="http://www.w3.org/2000/svg" xmlns:xlink="http://www.w3.org/1999/xlink">
    <!-- Generator: Sketch 52.2 (67145) - http://www.bohemiancoding.com/sketch -->
    <title>branch_handSelect</title>
    <desc>Created with Sketch.</desc>
    <g id="基础内容" stroke="none" stroke-width="1" fill="none" fill-rule="evenodd">
        <g id="流程图内图标" transform="translate(-393.000000, -98.000000)" fill-rule="nonzero">
            <g id="branch_handSelect" transform="translate(393.000000, 98.000000)">
                <circle id="Oval-2-Copy-4" stroke="#FFFFFF" fill="#D0021B" cx="11.5" cy="11.5" r="11"></circle>
                <path d="M13.5420489,9.98192332 L11.6075193,13.4355429 L11.5972018,13.4355429 L11.5972018,13.4407915 L8.68766923,13.4407915 C8.44520819,13.4407915 8.20274714,13.1941044 8.20274714,12.9474173 C8.20274714,12.7007302 8.44520819,12.4540431 8.68766923,12.4540431 L9.17775008,12.4540431 L9.17775008,12.4487944 L11.1174385,12.4487944 L13.0571268,8.99517487 L15.9460244,8.99517487 L15.9460244,8.07141037 C16.0904693,7.92444784 16.2865016,7.92444784 16.4309465,8.07141037 L18.2726187,9.35208389 C18.4170636,9.50429508 18.4170636,9.69849557 18.2726187,9.79822015 L16.4309465,11.0316557 C16.2865016,11.1786182 16.0904693,11.1786182 15.9460244,11.0316557 L15.9460244,9.98192332 L13.5420489,9.98192332 Z M16.4309465,14.4327886 L18.2726187,15.7134622 C18.4170636,15.8656734 18.4170636,16.0598738 18.2726187,16.1595984 L16.4309465,17.393034 C16.2865016,17.5399965 16.0904693,17.5399965 15.9460244,17.393034 L15.9460244,16.3957882 L14.026971,16.3957882 C13.9289549,16.2488257 12.5722047,13.9289171 12.5722047,13.9289171 L13.0571268,12.9421687 L14.5118931,15.4090398 L15.9460244,15.4090398 L15.9460244,14.4327886 C16.0904693,14.2858261 16.2865016,14.2858261 16.4309465,14.4327886 Z M4.38095238,5.47619048 L5.51214504,5.47619048 L7.51856706,10.1000437 L7.55159458,10.1000437 L9.54975972,5.47619048 L10.6809524,5.47619048 L10.6809524,11.3716033 L9.71489734,11.3716033 L9.71489734,7.309218 L9.68186981,7.309218 L7.94792486,11.3716033 L7.1139799,11.3716033 L5.38003495,7.309218 L5.34700743,7.309218 L5.34700743,11.3716033 L4.38095238,11.3716033 L4.38095238,5.47619048 Z" id="强制自动分支" fill="#FFFFFF"></path>
            </g>
        </g>
    </g>
</svg>