<?xml version="1.0" encoding="UTF-8"?>
<svg width="23px" height="23px" viewBox="0 0 23 23" version="1.1" xmlns="http://www.w3.org/2000/svg" xmlns:xlink="http://www.w3.org/1999/xlink">
    <!-- Generator: Sketch 53 (72520) - https://sketchapp.com -->
    <title>branch_forceAutoCondition_Current</title>
    <desc>Created with Sketch.</desc>
    <g id="基础内容" stroke="none" stroke-width="1" fill="none" fill-rule="evenodd">
        <g id="流程图内图标-copy-2" transform="translate(-851.000000, -220.000000)" fill-rule="nonzero">
            <g id="branch_forceAutoCondition_Current" transform="translate(851.000000, 220.000000)">
                <circle id="Oval-2-Copy-4" stroke="#FFFFFF" fill="#F5A623" cx="11.5" cy="11.5" r="11"></circle>
                <path d="M8.87825079,13.1000995 L8.35932729,13.8061799 L10.4018809,13.8061799 L5.52243624,19.669065 L7.1489178,15.5407118 L5.33333333,15.5407118 L7.1489178,10.6666667 L9.3145852,10.6666667 L8.8011782,9.25282278 L5.86548846,9.25282278 L5.22729504,11.0103093 L4,11.0103093 L6.68041237,4 L7.9862543,4 L10.5352739,10.6666667 L10.6666667,10.6666667 L10.5802385,10.7842664 L10.6666667,11.0103093 L10.4141116,11.0103093 L9.70976348,11.9686902 L11.6988412,11.9686902 L13.9156279,8.02169645 L17.2172252,8.02169645 L17.2172252,6.96596559 C17.382305,6.79800841 17.606342,6.79800841 17.7714219,6.96596559 L19.8761901,8.42959247 C20.04127,8.60354812 20.04127,8.82549154 19.8761901,8.93946249 L17.7714219,10.3491031 C17.606342,10.5170603 17.382305,10.5170603 17.2172252,10.3491031 L17.2172252,9.14940896 L14.4698246,9.14940896 L12.2589336,13.0964027 L12.2471422,13.0964027 L12.2471422,13.1024012 L8.92196212,13.1024012 C8.90737821,13.1024012 8.8927943,13.1016203 8.87825079,13.1000995 Z M17.7714219,14.2361122 L19.8761901,15.6997391 C20.04127,15.8736947 20.04127,16.0956381 19.8761901,16.2096091 L17.7714219,17.6192497 C17.606342,17.7872069 17.382305,17.7872069 17.2172252,17.6192497 L17.2172252,16.4795403 L15.0240213,16.4795403 C14.9120028,16.3115831 13.3614313,13.660259 13.3614313,13.660259 L13.9156279,12.5325465 L15.578218,15.3518278 L17.2172252,15.3518278 L17.2172252,14.2361122 C17.382305,14.068155 17.606342,14.068155 17.7714219,14.2361122 Z M6.20913108,8.31026019 L8.45753559,8.31026019 L7.35787923,5.2371134 L7.31860579,5.2371134 L6.20913108,8.31026019 Z" id="强制自动分支" fill="#FFFFFF"></path>
            </g>
        </g>
    </g>
</svg>