<?xml version="1.0" encoding="UTF-8"?>
<svg width="23px" height="23px" viewBox="0 0 23 23" version="1.1" xmlns="http://www.w3.org/2000/svg" xmlns:xlink="http://www.w3.org/1999/xlink">
    <!-- Generator: Sketch 53 (72520) - https://sketchapp.com -->
    <title>branch_autoSelect_Current</title>
    <desc>Created with Sketch.</desc>
    <g id="基础内容" stroke="none" stroke-width="1" fill="none" fill-rule="evenodd">
        <g id="流程图内图标-copy-2" transform="translate(-896.000000, -220.000000)" fill-rule="nonzero">
            <g id="branch_autoSelect_Current" transform="translate(896.000000, 220.000000)">
                <circle id="Oval-2-Copy-4" stroke="#FFFFFF" fill="#F5A623" cx="11.5" cy="11.5" r="11"></circle>
                <path d="M13.4698246,10.149409 L11.2589336,14.0964027 L11.2471422,14.0964027 L11.2471422,14.1024012 L7.92196212,14.1024012 C7.64486378,14.1024012 7.36776544,13.8204731 7.36776544,13.538545 C7.36776544,13.2566168 7.64486378,12.9746887 7.92196212,12.9746887 L8.48205451,12.9746887 L8.48205451,12.9686902 L10.6988412,12.9686902 L12.9156279,9.02169645 L16.2172252,9.02169645 L16.2172252,7.96596559 C16.382305,7.79800841 16.606342,7.79800841 16.7714219,7.96596559 L18.8761901,9.42959247 C19.04127,9.60354812 19.04127,9.82549154 18.8761901,9.93946249 L16.7714219,11.3491031 C16.606342,11.5170603 16.382305,11.5170603 16.2172252,11.3491031 L16.2172252,10.149409 L13.4698246,10.149409 Z M16.7714219,15.2361122 L18.8761901,16.6997391 C19.04127,16.8736947 19.04127,17.0956381 18.8761901,17.2096091 L16.7714219,18.6192497 C16.606342,18.7872069 16.382305,18.7872069 16.2172252,18.6192497 L16.2172252,17.4795403 L14.0240213,17.4795403 C13.9120028,17.3115831 12.3614313,14.660259 12.3614313,14.660259 L12.9156279,13.5325465 L14.578218,16.3518278 L16.2172252,16.3518278 L16.2172252,15.2361122 C16.382305,15.068155 16.606342,15.068155 16.7714219,15.2361122 Z M5.68041237,5 L6.9862543,5 L9.66666667,12.0103093 L8.43937162,12.0103093 L7.8011782,10.2528228 L4.86548846,10.2528228 L4.22729504,12.0103093 L3,12.0103093 L5.68041237,5 Z M5.20913108,9.31026019 L7.45753559,9.31026019 L6.35787923,6.2371134 L6.31860579,6.2371134 L5.20913108,9.31026019 Z" id="强制自动分支" fill="#FFFFFF"></path>
            </g>
        </g>
    </g>
</svg>