<?xml version="1.0" encoding="UTF-8"?>
<svg width="20px" height="16px" viewBox="0 0 20 16" version="1.1" xmlns="http://www.w3.org/2000/svg" xmlns:xlink="http://www.w3.org/1999/xlink">
    <!-- Generator: Sketch 52.5 (67469) - http://www.bohemiancoding.com/sketch -->
    <title>子流程结束主流程才可继续</title>
    <desc>Created with Sketch.</desc>
    <g id="基础内容" stroke="none" stroke-width="1" fill="none" fill-rule="evenodd">
        <g id="流程图内图标-copy-2" transform="translate(-1024.000000, -190.000000)" fill="#FF6A00">
            <g id="子流程结束主流程才可继续" transform="translate(1024.000000, 190.000000)">
                <path d="M3.27780984,5.13057827 L2.50355292e-14,5.13057829 L2.52020627e-14,2.74894515 L3.27761848,2.74894515 L3.27761575,2.71487052 C3.52608164,2.71487052 3.76768638,2.72624313 4.00231627,2.74894514 L13.2590295,2.74894512 L12.2399419,0.271835979 C12.2055935,0.188760378 12.2333673,0.0941043919 12.3073703,0.0403525151 C12.3815803,-0.0137969715 12.4842113,-0.0133745111 12.5580072,0.0411725853 L17.6262668,3.78250698 C17.6769481,3.82035447 17.7070773,3.87798304 17.7070773,3.93986107 C17.7070773,4.00154029 17.6769481,4.05956647 17.6262668,4.09721515 L12.5580072,7.83835075 C12.5206821,7.86583552 12.4765754,7.87925486 12.4318475,7.87925486 C12.3881549,7.87925486 12.3444882,7.86623313 12.3073703,7.83956843 C12.2331602,7.78581655 12.2055935,7.69096176 12.2399419,7.60768735 L13.2590295,5.13057821 L8.03551135,5.13057824 C9.09580582,6.78656359 9.073206,8.68121339 9.05287345,8.77635941 C9.06731165,8.95063786 9.07404617,9.0763834 9.07404617,9.0763834 L9.07769921,10.3880921 L11.5548084,9.3690045 C11.6380828,9.33465614 11.7329376,9.36222283 11.7866894,9.43643289 C11.8133541,9.47355086 11.8263759,9.51721754 11.8263759,9.5609101 C11.8263759,9.60563803 11.8129565,9.64974474 11.7854717,9.68706979 L8.04433615,14.7553294 C8.00668748,14.8060107 7.94866129,14.8361399 7.88698207,14.8361399 C7.82510404,14.8361399 7.76747547,14.8060107 7.72962799,14.7553294 L3.98829359,9.68706979 C3.93374649,9.61327388 3.93332403,9.51064295 3.98747352,9.43643289 C4.04122539,9.36242991 4.13588138,9.33465614 4.21895698,9.3690045 L6.69606612,10.3880921 L6.69606612,8.61031214 C6.67732876,8.2237572 6.5513113,6.9532044 5.73822408,6.09017275 C5.16720669,5.48393845 4.36246927,5.18919484 3.27781455,5.18919484 L3.27780984,5.13057827 Z" id="Combined-Shape"></path>
                <path d="M15,6 C12.25,6 10,8.25 10,11 C10,13.75 12.25,16 15,16 C17.75,16 20,13.75 20,11 C20,8.25 17.75,6 15,6 Z M14.4375,13.0625 C14.4375,13.25 14.25,13.375 14,13.375 C13.75,13.375 13.5625,13.25 13.5625,13.0625 L13.5625,8.9375 C13.5625,8.75 13.75,8.625 14,8.625 C14.25,8.625 14.4375,8.75 14.4375,8.9375 L14.4375,13.0625 Z M16.5,13.0625 C16.5,13.25 16.3125,13.375 16.0625,13.375 C15.8125,13.375 15.625,13.25 15.625,13.0625 L15.625,8.9375 C15.625,8.75 15.8125,8.625 16.0625,8.625 C16.3125,8.625 16.5,8.75 16.5,8.9375 L16.5,13.0625 Z" id="Shape" fill-rule="nonzero"></path>
            </g>
        </g>
    </g>
</svg>