<?xml version="1.0" encoding="UTF-8"?>
<svg width="16px" height="16px" viewBox="0 0 16 16" version="1.1" xmlns="http://www.w3.org/2000/svg" xmlns:xlink="http://www.w3.org/1999/xlink">
    <!-- Generator: Sketch 52.2 (67145) - http://www.bohemiancoding.com/sketch -->
    <title>已读 copy</title>
    <desc>Created with Sketch.</desc>
    <g id="基础内容" stroke="none" stroke-width="1" fill="none" fill-rule="evenodd">
        <g id="流程图内图标" transform="translate(-495.000000, -67.000000)">
            <g id="已读-copy" transform="translate(495.000000, 67.000000)">
                <circle id="Oval-2" fill="#FFFFFF" cx="8" cy="8" r="8"></circle>
                <path d="M15,8 C15,6 14.299,4.399 12.898,3 C11.5,1.7 9.898,1 8,1 C6,1 4.4,1.7 3,3 C1.699,4.399 1,6 1,8 C1,9.899 1.699,11.5 3,12.899 C4.4,14.299 6,15 8,15 C9.898,15 11.5,14.3 12.898,12.899 C14.299,11.5 15,9.9 15,8 M10.6614618,10 L5.28780172,10 C5.12857404,10 5,10.173828 5,10.3876823 C5,10.6015366 5.12857404,10.7752262 5.28780172,10.7752262 L10.6614618,10.7752262 C10.8203984,10.7752262 10.9492636,10.601525 10.9492636,10.3876823 C10.9492636,10.1738395 10.8203984,10 10.6614618,10 Z M10.6614618,8 L5.28780172,8 C5.12857404,8 5,8.17382797 5,8.38768228 C5,8.60153658 5.12857404,8.77522618 5.28780172,8.77522618 L10.6614618,8.77522618 C10.8203984,8.77522618 10.9492636,8.60152505 10.9492636,8.38768228 C10.9492636,8.17383951 10.8203984,8 10.6614618,8 Z M10.6614618,6 L5.28780172,6 C5.12857404,6 5,6.17382797 5,6.38768228 C5,6.60153658 5.12857404,6.77522618 5.28780172,6.77522618 L10.6614618,6.77522618 C10.8203984,6.77522618 10.9492636,6.60152505 10.9492636,6.38768228 C10.9492636,6.17383951 10.8203984,6 10.6614618,6 Z" id="已读" fill="#286EB7"></path>
            </g>
        </g>
    </g>
</svg>