<?xml version="1.0" encoding="UTF-8"?>
<svg width="16px" height="24px" viewBox="0 0 16 24" version="1.1" xmlns="http://www.w3.org/2000/svg" xmlns:xlink="http://www.w3.org/1999/xlink">
    <!-- Generator: Sketch 52.2 (67145) - http://www.bohemiancoding.com/sketch -->
    <title>已读 copy 2</title>
    <desc>Created with Sketch.</desc>
    <g id="基础内容" stroke="none" stroke-width="1" fill="none" fill-rule="evenodd">
        <g id="流程图内图标" transform="translate(-495.000000, -97.000000)">
            <g id="已读-copy-2" transform="translate(495.000000, 97.000000)">
                <circle id="Oval-2" fill="#FFFFFF" cx="8" cy="16" r="8"></circle>
                <path d="M15,16 C15,14 14.299,12.399 12.898,11 C11.5,9.7 9.898,9 8,9 C6,9 4.4,9.7 3,11 C1.699,12.399 1,14 1,16 C1,17.899 1.699,19.5 3,20.899 C4.4,22.299 6,23 8,23 C9.898,23 11.5,22.3 12.898,20.899 C14.299,19.5 15,17.9 15,16 M12.199,14.9 C12.5,15.201 12.699,15.6 13,16.001 C12.699,16.4 12.5,16.701 12.199,17.101 C11,18.301 9.599,19.001 8,19.001 C6.301,19.001 4.9,18.301 3.699,17.101 C3.5,16.702 3.199,16.401 3,16.001 C3.199,15.601 3.5,15.201 3.699,14.9 C4.9,13.6 6.301,13.001 8,13.001 C9.6,13 11,13.6 12.199,14.9 Z M6.5,17.399 C6.898,17.799 7.398,18 8,18 C8.5,18 9,17.8 9.398,17.399 C9.798,17 10,16.5 10,16 C10,15.399 9.799,14.899 9.398,14.5 C9,14.2 8.5,14 8,14 C7.398,14 6.898,14.2 6.5,14.5 C6.199,14.899 6,15.399 6,16 C6,16.499 6.199,16.999 6.5,17.399 Z" id="已读" fill="#286EB7"></path>
                <path d="M11.1204539,2.93803657 C11.7144256,3.29212268 12.4432068,4.24727418 12.7464068,5.39700285 C13.0496497,6.54680303 12.9993643,7.57636724 12.9993643,7.57636724 C12.9993643,7.57636724 12.6067918,6.94233601 12.4476261,6.72004178 C12.2884604,6.49780476 11.6177734,5.66969692 10.5767534,5.18973991 C9.53573337,4.7097972 7.79565142,4.79526527 7.79565142,4.79526527 L7.79565142,6.79383952 L3,3.39692691 L7.79565142,0 L7.79565142,2.01695217 C7.79565142,2.01695217 8.94768269,2.10366451 9.54987793,2.22836266 C10.5641391,2.43841447 11.1204539,2.93803657 11.1204539,2.93803657 L11.1204539,2.93803657 Z" id="iconfont-fanhui" fill="#FF8300" transform="translate(8.001242, 3.788184) rotate(180.000000) translate(-8.001242, -3.788184) "></path>
            </g>
        </g>
    </g>
</svg>