<?xml version="1.0" encoding="UTF-8"?>
<svg width="16px" height="16px" viewBox="0 0 16 16" version="1.1" xmlns="http://www.w3.org/2000/svg" xmlns:xlink="http://www.w3.org/1999/xlink">
    <!-- Generator: Sketch 52.2 (67145) - http://www.bohemiancoding.com/sketch -->
    <title>monitor-autoskip</title>
    <desc>Created with Sketch.</desc>
    <g id="基础内容" stroke="none" stroke-width="1" fill="none" fill-rule="evenodd">
        <g id="流程图内图标" transform="translate(-328.000000, -41.000000)">
            <g id="monitor-autoskip" transform="translate(328.000000, 41.000000)">
                <circle id="Oval-2" fill="#FFFFFF" cx="8" cy="8" r="8"></circle>
                <path d="M7.999,1 C5.999,1 4.399,1.7 2.999,3 C1.7,4.399 1,6 1,8 C1,9.899 1.7,11.5 2.999,12.899 C4.1,14 5.982,15 7.999,15 C9.899,15 11.499,14.3 12.899,12.899 C14.299,11.5 14.999,9.899 14.999,8 C14.999,6 14.3,4.399 12.899,3 C11.499,1.7 9.899,1 7.999,1" id="Shape" fill="#FFFFFF"></path>
                <path d="M7.999,1 C9.899,1 11.499,1.7 12.899,3 C14.3,4.399 14.999,6 14.999,8 C14.999,9.899 14.299,11.5 12.899,12.899 C11.499,14.3 9.899,15 7.999,15 C5.982,15 4.1,14 2.999,12.899 C1.7,11.5 1,9.899 1,8 C1,6 1.7,4.399 2.999,3 C4.399,1.7 5.999,1 7.999,1 Z M11.5625,10.5 C12.0625,10.5 12.5,10.0625 12.5,9.5625 L12.5,4.9375 C12.5,4.4375 12.0625,4 11.5625,4 L4.9375,4 C4.4375,4 4,4.4375 4,4.9375 L4,5.25 C4,5.375 4.125,5.4375 4.25,5.4375 C4.375,5.4375 4.5,5.3125 4.5,5.1875 L4.5,4.9375 C4.5,4.6875 4.6875,4.5 4.9375,4.5 L11.5625,4.5 C11.8125,4.5 12,4.6875 12,4.9375 L12,9.5625 C12,9.8125 11.8125,10 11.5625,10 L4.9375,10 C4.6875,10 4.5,9.8125 4.5,9.5625 L4.5,6.5 C4.5,6.3125 4.375,6.25 4.25,6.25 C4.125,6.25 4,6.375 4,6.5 L4,9.5625 C4,10.0625 4.4375,10.5 4.9375,10.5 L11.5625,10.5 Z M10.75,12 C10.875,12 11,11.875 11,11.75 C11,11.625 10.875,11.5 10.75,11.5 L5.75,11.5 C5.625,11.5 5.5,11.625 5.5,11.75 C5.5,11.875 5.625,12 5.75,12 L10.75,12 Z M6,7.5 L7.54285714,9 L9.94285714,6.6 L9.34285714,6 L7.5,7.8 L6.6,6.9 L6,7.5 Z" id="已办" fill="#36A946"></path>
            </g>
        </g>
    </g>
</svg>