<?xml version="1.0" encoding="UTF-8"?>
<svg width="16px" height="24px" viewBox="0 0 16 24" version="1.1" xmlns="http://www.w3.org/2000/svg" xmlns:xlink="http://www.w3.org/1999/xlink">
    <!-- Generator: Sketch 52.2 (67145) - http://www.bohemiancoding.com/sketch -->
    <title>unused_未读 copy</title>
    <desc>Created with Sketch.</desc>
    <g id="基础内容" stroke="none" stroke-width="1" fill="none" fill-rule="evenodd">
        <g id="流程图内图标-copy-2" transform="translate(-919.000000, -100.000000)">
            <g id="unused_未读-copy" transform="translate(919.000000, 100.000000)">
                <circle id="Oval-2-Copy-7" fill="#FFFFFF" cx="8" cy="16" r="8"></circle>
                <path d="M7.999,9 C5.999,9 4.399,9.7 2.999,11 C1.7,12.399 1,14 1,16 C1,17.899 1.7,19.5 2.999,20.899 C4.1,22 5.982,23 7.999,23 C9.899,23 11.499,22.3 12.899,20.899 C14.299,19.5 14.999,17.899 14.999,16 C14.999,14 14.3,12.399 12.899,11 C11.499,9.7 9.899,9 7.999,9" id="Shape" fill="#FFFFFF"></path>
                <path d="M11.1204539,2.93803657 C11.7144256,3.29212268 12.4432068,4.24727418 12.7464068,5.39700285 C13.0496497,6.54680303 12.9993643,7.57636724 12.9993643,7.57636724 C12.9993643,7.57636724 12.6067918,6.94233601 12.4476261,6.72004178 C12.2884604,6.49780476 11.6177734,5.66969692 10.5767534,5.18973991 C9.53573337,4.7097972 7.79565142,4.79526527 7.79565142,4.79526527 L7.79565142,6.79383952 L3,3.39692691 L7.79565142,0 L7.79565142,2.01695217 C7.79565142,2.01695217 8.94768269,2.10366451 9.54987793,2.22836266 C10.5641391,2.43841447 11.1204539,2.93803657 11.1204539,2.93803657 L11.1204539,2.93803657 Z" id="iconfont-fanhui" fill="#FF8300" transform="translate(8.001242, 3.788184) rotate(180.000000) translate(-8.001242, -3.788184) "></path>
                <path d="M14.999,16 C14.999,14 14.3,12.399 12.899,11 C11.499,9.7 9.899,9 7.999,9 C6,9 4.4,9.7 3,11 C1.7,12.399 1,14 1,16 C1,17.899 1.7,19.5 3,20.899 C4.4,22.299 6,23 7.999,23 C9.899,23 11.499,22.3 12.899,20.899 C14.3,19.5 14.999,17.9 14.999,16 M10.4586609,18.398342 L12.584654,20.8146235 L11.957736,21.3662245 L9.64618161,18.7390446 C9.12275696,18.9105869 8.57366547,19.001 7.999,19.001 C6.3,19.001 4.9,18.301 3.7,17.101 C3.5,16.702 3.2,16.401 3,16.001 C3.2,15.601 3.5,15.201 3.7,14.9 C4.16898999,14.3919275 4.66852881,13.9909287 5.20452639,13.6909145 L3,11.1853765 L3.626918,10.6337755 L5.99861465,13.3293096 C6.61703599,13.1078741 7.28134406,13.001 7.999,13.001 C9.599,13 10.999,13.6 12.2,14.9 C12.499,15.201 12.7,15.6 12.999,16.001 C12.7,16.4 12.499,16.701 12.2,17.101 C11.6599353,17.640615 11.0794283,18.0791244 10.4586609,18.398342 Z M6.25848736,14.888786 C6.09751017,15.209948 6,15.5803527 6,16 C6,16.499 6.2,16.999 6.5,17.399 C6.899,17.799 7.4,18 7.999,18 C8.28119471,18 8.56338942,17.9362929 8.82760632,17.808699 L6.25848736,14.888786 Z M6.83868407,14.2840843 L9.49231579,17.3000496 C9.83010526,16.9189525 9.999,16.4594762 9.999,16 C9.999,15.399 9.8,14.899 9.399,14.5 C8.999,14.2 8.499,14 7.999,14 C7.55828693,14 7.17098657,14.1079044 6.83868407,14.2840843 Z M10.4586609,18.398342 L9.49231579,17.3000496 C9.46252427,17.3336606 9.431419,17.366662 9.399,17.399 C9.22475577,17.5736798 9.03153587,17.7102186 8.82760632,17.808699 L9.64618161,18.7390446 C9.92425687,18.6479108 10.1950879,18.5338793 10.4586609,18.398342 Z M5.20452639,13.6909145 L6.25848736,14.888786 C6.32805446,14.7499942 6.40947453,14.6203989 6.5,14.5 C6.60566033,14.4203565 6.71857997,14.3477609 6.83868407,14.2840843 L5.99861465,13.3293096 C5.7251617,13.4272238 5.46068064,13.5475372 5.20452639,13.6909145 Z" id="未读" fill="#F08300"></path>
            </g>
        </g>
    </g>
</svg>