<?xml version="1.0" encoding="UTF-8"?>
<svg width="16px" height="16px" viewBox="0 0 16 16" version="1.1" xmlns="http://www.w3.org/2000/svg" xmlns:xlink="http://www.w3.org/1999/xlink">
    <!-- Generator: Sketch 52.2 (67145) - http://www.bohemiancoding.com/sketch -->
    <title>未读</title>
    <desc>Created with Sketch.</desc>
    <g id="基础内容" stroke="none" stroke-width="1" fill="none" fill-rule="evenodd">
        <g id="流程图内图标" transform="translate(-495.000000, -41.000000)">
            <g id="未读" transform="translate(495.000000, 41.000000)">
                <circle id="Oval-2-Copy-7" fill="#FFFFFF" cx="8" cy="8" r="8"></circle>
                <path d="M7.999,1 C5.999,1 4.399,1.7 2.999,3 C1.7,4.399 1,6 1,8 C1,9.899 1.7,11.5 2.999,12.899 C4.1,14 5.982,15 7.999,15 C9.899,15 11.499,14.3 12.899,12.899 C14.299,11.5 14.999,9.899 14.999,8 C14.999,6 14.3,4.399 12.899,3 C11.499,1.7 9.899,1 7.999,1" id="Shape" fill="#FFFFFF"></path>
                <path d="M14.999,8 C14.999,6 14.3,4.399 12.899,3 C11.499,1.7 9.899,1 7.999,1 C6,1 4.4,1.7 3,3 C1.7,4.399 1,6 1,8 C1,9.899 1.7,11.5 3,12.899 C4.4,14.299 6,15 7.999,15 C9.899,15 11.499,14.3 12.899,12.899 C14.3,11.5 14.999,9.9 14.999,8 M10.4586609,10.398342 L12.584654,12.8146235 L11.957736,13.3662245 L9.64618161,10.7390446 C9.12275696,10.9105869 8.57366547,11.001 7.999,11.001 C6.3,11.001 4.9,10.301 3.7,9.101 C3.5,8.702 3.2,8.401 3,8.001 C3.2,7.601 3.5,7.201 3.7,6.9 C4.16898999,6.39192751 4.66852881,5.99092869 5.20452639,5.69091452 L3,3.1853765 L3.626918,2.6337755 L5.99861465,5.32930963 C6.61703599,5.10787414 7.28134406,5.001 7.999,5.001 C9.599,5 10.999,5.6 12.2,6.9 C12.499,7.201 12.7,7.6 12.999,8.001 C12.7,8.4 12.499,8.701 12.2,9.101 C11.6599353,9.64061502 11.0794283,10.0791244 10.4586609,10.398342 Z M6.25848736,6.88878599 C6.09751017,7.20994802 6,7.58035269 6,8 C6,8.499 6.2,8.999 6.5,9.399 C6.899,9.799 7.4,10 7.999,10 C8.28119471,10 8.56338942,9.93629292 8.82760632,9.80869897 L6.25848736,6.88878599 Z M6.83868407,6.28408426 L9.49231579,9.30004959 C9.83010526,8.91895249 9.999,8.45947625 9.999,8 C9.999,7.399 9.8,6.899 9.399,6.5 C8.999,6.2 8.499,6 7.999,6 C7.55828693,6 7.17098657,6.10790445 6.83868407,6.28408426 Z M10.4586609,10.398342 L9.49231579,9.30004959 C9.46252427,9.33366065 9.431419,9.36666204 9.399,9.399 C9.22475577,9.57367984 9.03153587,9.71021862 8.82760632,9.80869897 L9.64618161,10.7390446 C9.92425687,10.6479108 10.1950879,10.5338793 10.4586609,10.398342 Z M5.20452639,5.69091452 L6.25848736,6.88878599 C6.32805446,6.74999421 6.40947453,6.62039888 6.5,6.5 C6.60566033,6.42035653 6.71857997,6.34776093 6.83868407,6.28408426 L5.99861465,5.32930963 C5.7251617,5.42722376 5.46068064,5.54753719 5.20452639,5.69091452 Z" fill="#F08300"></path>
            </g>
        </g>
    </g>
</svg>