<?xml version="1.0" encoding="UTF-8"?>
<svg style="display:none" version="1.1"
     xmlns="http://www.w3.org/2000/svg"
     xmlns:s="http://www.seeyon.com/">

    <!-- seeyon svg workflow designer all icons -->

    <symbol id="symbol_node_Account">
        <g transform="translate(11, 8)">
            <path d="M1.785,5.52506071 L10.115,5.52506071 L10.115,7.285775 L11.9,7.285775 L11.9,17.8500607 L7.735,17.8500607 L7.735,15.5018548 L4.165595,15.5018548 L4.165595,17.8500607 L0,17.8500607 L0,7.285775 L1.785,7.285775 L1.785,5.52506071 Z M7.735,11.3941083 L10.115595,11.3941083 L10.115595,9.04590238 L7.735,9.04590238 L7.735,11.3941083 Z M4.76,11.3941083 L7.14,11.3941083 L7.14,9.04590238 L4.76,9.04590238 L4.76,11.3941083 Z M1.785,11.3941083 L4.165595,11.3941083 L4.165595,9.04590238 L1.785,9.04590238 L1.785,11.3941083 Z M7.735,14.9155369 L10.115595,14.9155369 L10.115595,12.5679179 L7.735,12.5679179 L7.735,14.9155369 Z M4.76,14.9155369 L7.14,14.9155369 L7.14,12.5679179 L4.76,12.5679179 L4.76,14.9155369 Z M1.785,14.9155369 L4.165595,14.9155369 L4.165595,12.5679179 L1.785,12.5679179 L1.785,14.9155369 Z M5.525,4.67506071 L5.525,6.07142857e-05 L6.8,6.07142857e-05 L6.8,4.67506071 L5.525,4.67506071 Z M4.675,17.8500607 L4.675,16.1500607 L7.225,16.1500607 L7.225,17.8500607 L4.675,17.8500607 Z M7.225,4.25 L7.225,0 C8.68214286,1.39642857 10.1392857,2.79285714 11.475,4.25 L7.225,4.25 Z"/>
        </g>
    </symbol>

    <symbol id="symbol_node_User">
        <g transform="translate(13, 6)">
            <path d="M7.90909091,7.88279417 C8.63636364,8.68785247 9,9.58236169 9,10.6557728 L9,15.4861225 C9,15.5755735 9,15.6650244 8.90909091,15.8439262 C8.90909091,15.9333772 8.81818182,16.0228281 8.63636364,16.2017299 C8.45454545,16.3806318 8.18181818,16.4700827 7.90909091,16.5595336 C7.54545455,16.4700827 7.27272727,16.3806318 7.09090909,16.2017299 C6.81818182,15.9333772 6.72727273,15.7544753 6.72727273,15.4861225 L6.72727273,21.9265889 C6.72727273,22.1949417 6.63636364,22.4632945 6.36363636,22.6421963 C6.18181818,22.9105491 5.90909091,23 5.63636364,23 C5.45454545,23 5.27272727,23 5.18181818,22.9105491 C5,22.8210982 4.90909091,22.7316472 4.81818182,22.6421963 C4.63636364,22.4632945 4.45454545,22.1949417 4.45454545,21.9265889 C4.45454545,22.1949417 4.36363636,22.4632945 4.09090909,22.6421963 C4,22.7316472 3.90909091,22.8210982 3.81818182,22.9105491 C3.63636364,23 3.45454545,23 3.36363636,23 C3,23 2.81818182,22.9105491 2.54545455,22.6421963 C2.36363636,22.4632945 2.18181818,22.1949417 2.18181818,21.9265889 L2.18181818,15.4861225 C2.18181818,15.7544753 2.09090909,15.9333772 1.90909091,16.2017299 C1.63636364,16.3806318 1.36363636,16.4700827 1.09090909,16.5595336 C0.727272727,16.4700827 0.545454545,16.3806318 0.272727273,16.2017299 C0.0909090909,15.9333772 0,15.7544753 0,15.4861225 L0,10.6557728 C0,9.58236169 0.363636364,8.68785247 1.09090909,7.88279417 C1.09090909,7.79334325 1.18181818,7.79334325 1.27272727,7.79334325 C2.09090909,6.89883403 3.18181818,6.45157942 4.45454545,6.45157942 C5.72727273,6.45157942 6.81818182,6.89883403 7.63636364,7.79334325 C7.72727273,7.79334325 7.81818182,7.79334325 7.90909091,7.88279417 Z M1.32857705,2.70047865 C1.23766796,1.89542035 1.51039524,1.26926389 2.05584978,0.732558361 C2.60130433,0.195852828 3.23766796,-0.0724999378 4.05584978,0.0169509843 C4.78312251,-0.0724999378 5.41948615,0.195852828 5.96494069,0.732558361 C6.41948615,1.26926389 6.69221342,1.89542035 6.78312251,2.70047865 C6.69221342,3.41608602 6.41948615,4.04224248 5.96494069,4.57894801 C5.41948615,5.02620262 4.78312251,5.38400631 4.05584978,5.38400631 C3.23766796,5.38400631 2.60130433,5.02620262 2.05584978,4.57894801 C1.51039524,4.04224248 1.23766796,3.41608602 1.32857705,2.70047865 Z"/>
        </g>
    </symbol>

    <symbol id="symbol_node_BlankNode">
    <g transform="translate(0,0)">
        <circle stroke="#81C7F5" stroke-width="2" cx="17" cy="17" r="9"/>
    </g>
    </symbol>
    <symbol id="symbol_node_BlankNode_current">
        <g transform="translate(0,0)">
            <circle stroke="#F5A623" stroke-width="2" cx="17" cy="17" r="9"/>
        </g>
    </symbol>

    <symbol id="symbol_node_SynNode">
        <g transform="translate(0,0)">
            <circle stroke="#fff" stroke-width="2" cx="7.5" cy="7.5" r="7.5"/>
        </g>
    </symbol>

    <symbol id="symbol_node_CollapsedNode">
        <g transform="translate(0,0)">
            <path d="M23.8397853,19.5 C22.6468129,19.5 21.6795956,18.4926091 21.6795956,17.2499477 C21.6795956,16.0073126 22.6468129,15 23.8397853,15 C25.0327827,15 26,16.0073126 26,17.2499477 C26,18.4926091 25.0327827,19.5 23.8397853,19.5 L23.8397853,19.5 Z M16.9999498,19.5 C15.8069524,19.5 14.8398354,18.4926091 14.8398354,17.2499477 C14.8398354,16.0073126 15.8069524,15 16.9999498,15 C18.1930226,15 19.1601395,16.0073126 19.1601395,17.2499477 C19.1601395,18.4926091 18.1930226,19.5 16.9999498,19.5 L16.9999498,19.5 Z M10.1600893,19.5 C8.96711693,19.5 8,18.4926091 8,17.2499477 C8,16.0073126 8.96711693,15 10.1600893,15 C11.3531871,15 12.3203041,16.0073126 12.3203041,17.2499477 C12.3203041,18.4926091 11.3531871,19.5 10.1600893,19.5 L10.1600893,19.5 Z"/>
        </g>
    </symbol>

	<symbol id="symbol_node_Department">
        <g transform="translate(8,8.5)">
		<path d="M18.7974851,12.756941 L18.7974851,13.0227567 C18.7974851,13.0816828 18.7974851,13.1406089 18.738559,13.2584611 C18.738559,13.3173872 18.6796329,13.3763133 18.5617807,13.4941655 C18.4439285,13.6120177 18.2671502,13.6709438 18.0903718,13.7298699 C17.8546674,13.6709438 17.6778891,13.6120177 17.5600369,13.4941655 C17.3864764,13.3206049 17.3265168,13.2038449 17.3243915,13.0323521 L17.3243915,16.9818835 C17.3243915,16.9851013 17.3243719,16.9883191 17.3243325,16.9915365 L17.3243325,17.2654359 C17.3243325,17.4422142 17.2654064,17.6189925 17.0886281,17.7368447 C16.9707759,17.913623 16.7939976,17.9725491 16.6172193,17.9725491 C16.4993671,17.9725491 16.3815149,17.9725491 16.3225888,17.913623 C16.2047366,17.8546969 16.1458105,17.7957708 16.0868844,17.7368447 C15.9690322,17.6189925 15.85118,17.4422142 15.85118,17.2654359 C15.85118,17.4422142 15.7922539,17.6189925 15.6154756,17.7368447 C15.5565495,17.7957708 15.4976234,17.8546969 15.4386973,17.913623 C15.3208451,17.9725491 15.2029929,17.9725491 15.1440668,17.9725491 C14.9083624,17.9725491 14.7905102,17.913623 14.6137319,17.7368447 C14.4958797,17.6189925 14.3780275,17.4422142 14.3780275,17.2654359 L14.3780275,13.0227567 C14.3780275,13.199535 14.3191014,13.3173872 14.2012492,13.4941655 C14.0244709,13.6120177 13.8476926,13.6709438 13.6709143,13.7298699 C13.4352099,13.6709438 13.3173577,13.6120177 13.1405794,13.4941655 C13.0227272,13.3173872 12.9638011,13.199535 12.9638011,13.0227567 L12.9638011,9.84074723 C12.9638011,9.8342922 12.9638207,9.82784699 12.96386,9.82141156 L12.96386,9.55719484 C12.96386,8.85008163 13.1995644,8.26082062 13.6709732,7.73048571 C13.6709732,7.67155961 13.7298993,7.67155961 13.7888254,7.67155961 C14.3191603,7.08229861 15.0262735,6.7876681 15.8512389,6.7876681 C16.6762044,6.7876681 17.3833176,7.08229861 17.9136525,7.67155961 C17.9725786,7.67155961 18.0315047,7.67155961 18.0904308,7.73048571 C18.5618396,8.26082062 18.797544,8.85008163 18.797544,9.55719484 L18.797544,12.7392043 C18.797544,12.7450969 18.797544,12.7509895 18.7974851,12.756941 Z M15.910224,2.95747156 C16.3816328,2.89854545 16.7941155,3.07532376 17.1476721,3.42888036 C17.4423026,3.78243697 17.6190809,4.19491967 17.6190809,4.72525458 C17.6190809,5.19666338 17.4423026,5.60914609 17.1476721,5.96270269 C16.7941155,6.3162593 16.3816328,6.4930376 15.910224,6.4930376 C15.3798891,6.4930376 14.9674064,6.3162593 14.6138498,5.96270269 C14.2602932,5.66807219 14.0835149,5.25558948 14.142441,4.72525458 C14.0835149,4.19491967 14.2602932,3.78243697 14.6138498,3.42888036 C14.9674064,3.07532376 15.3798891,2.89854545 15.910224,2.95747156 Z M14.2011313,0.482752103 C14.4957619,0.836308707 14.6725402,1.24879141 14.7314663,1.77912632 C14.7314663,2.25053512 14.554688,2.66301783 14.2011313,3.01657443 C13.8475747,3.31120494 13.435092,3.54690934 12.9636832,3.54690934 C12.4333483,3.54690934 12.0208656,3.31120494 11.667309,3.01657443 C11.3137524,2.66301783 11.1369741,2.25053512 11.1369741,1.77912632 C11.1369741,1.24879141 11.3137524,0.836308707 11.667309,0.482752103 C12.0208656,0.129195499 12.4333483,0.0113432971 12.9636832,0.0113432971 C13.435092,0.0113432971 13.8475747,0.129195499 14.2011313,0.482752103 Z M12.2566879,13.2584611 C12.2566879,13.3173872 12.1977618,13.3763133 12.0799096,13.4941655 C11.9620574,13.6120177 11.7852791,13.6709438 11.6085008,13.7298699 C11.3727964,13.6709438 11.1960181,13.6120177 11.0781659,13.4941655 C10.9013876,13.3173872 10.8424615,13.199535 10.8424615,13.0227567 L10.8424615,17.2654359 C10.8424615,17.4422142 10.7835354,17.6189925 10.6067571,17.7368447 C10.4889049,17.913623 10.3121266,17.9725491 10.1353483,17.9725491 C10.017496,17.9725491 9.89964385,17.9725491 9.84071775,17.913623 C9.72286555,17.8546969 9.66393945,17.7957708 9.60501334,17.7368447 C9.48716114,17.6189925 9.36930894,17.4422142 9.36930894,17.2654359 C9.36930894,17.4422142 9.31038284,17.6189925 9.13360454,17.7368447 C9.07467844,17.7957708 9.01575234,17.8546969 8.95682624,17.913623 C8.83897404,17.9725491 8.72112183,17.9725491 8.66219573,17.9725491 C8.42649133,17.9725491 8.30863913,17.913623 8.13186083,17.7368447 C8.01400863,17.6189925 7.89615642,17.4422142 7.89615642,17.2654359 L7.89615642,13.0227567 C7.89615642,13.199535 7.83723032,13.3173872 7.71937812,13.4941655 C7.54259982,13.6120177 7.36582152,13.6709438 7.18904322,13.7298699 C6.95333881,13.6709438 6.83548661,13.6120177 6.65870831,13.4941655 C6.54085611,13.3173872 6.48193001,13.199535 6.48193001,13.0227567 L6.48193001,9.84074723 C6.48193001,9.13363402 6.71763441,8.54437302 7.18904322,8.01403811 C7.18904322,7.95511201 7.24796932,7.95511201 7.30689542,7.95511201 C7.83723032,7.365851 8.54434353,7.0712205 9.36930894,7.0712205 C10.1942744,7.0712205 10.9013876,7.365851 11.4317225,7.95511201 C11.4906486,7.95511201 11.5495747,7.95511201 11.6085008,8.01403811 C12.0799096,8.54437302 12.315614,9.13363402 12.315614,9.84074723 L12.315614,13.0227567 C12.315614,13.0816828 12.315614,13.1406089 12.2566879,13.2584611 Z M9.42835289,2.95747156 C9.8997617,2.89854545 10.3122444,3.07532376 10.665801,3.42888036 C10.9604315,3.78243697 11.1372098,4.19491967 11.1372098,4.72525458 C11.1372098,5.19666338 10.9604315,5.60914609 10.665801,5.96270269 C10.3122444,6.3162593 9.8997617,6.4930376 9.42835289,6.4930376 C8.89801799,6.4930376 8.48553528,6.3162593 8.13197868,5.96270269 C7.77842207,5.66807219 7.60164377,5.25558948 7.66056987,4.72525458 C7.60164377,4.19491967 7.77842207,3.78243697 8.13197868,3.42888036 C8.48553528,3.07532376 8.89801799,2.89854545 9.42835289,2.95747156 Z M5.12657076,7.73054464 C5.59797957,8.26087955 5.83368397,8.85014055 5.83368397,9.55725376 L5.83368397,12.7392632 C5.83368397,12.7981893 5.83368397,12.8571154 5.77475787,12.9749676 C5.77475787,13.0338937 5.71583177,13.0928198 5.59797957,13.210672 C5.48012737,13.3285242 5.30334907,13.3874503 5.12657076,13.4463764 C4.89086636,13.3874503 4.71408806,13.3285242 4.59623586,13.210672 C4.41945755,13.0338937 4.36053145,12.9160415 4.36053145,12.7392632 L4.36053145,16.9819425 C4.36053145,17.1587208 4.30160535,17.3354991 4.12482705,17.4533513 C4.00697485,17.6301296 3.83019655,17.6890557 3.65341825,17.6890557 C3.53556604,17.6890557 3.41771384,17.6890557 3.35878774,17.6301296 C3.24093554,17.5712035 3.18200944,17.5122774 3.12308334,17.4533513 C3.00523114,17.3354991 2.88737894,17.1587208 2.88737894,16.9819425 C2.88737894,17.1587208 2.82845283,17.3354991 2.65167453,17.4533513 C2.59274843,17.5122774 2.53382233,17.5712035 2.47489623,17.6301296 C2.35704403,17.6890557 2.23919183,17.6890557 2.18026573,17.6890557 C1.94456132,17.6890557 1.82670912,17.6301296 1.64993082,17.4533513 C1.53207862,17.3354991 1.41422642,17.1587208 1.41422642,16.9819425 L1.41422642,12.7392632 C1.41422642,12.9160415 1.35530032,13.0338937 1.23744812,13.210672 C1.06066981,13.3285242 0.883891511,13.3874503 0.707113209,13.4463764 C0.471408806,13.3874503 0.353556604,13.3285242 0.176778302,13.210672 C0.0589261007,13.0338937 0,12.9160415 0,12.7392632 L0,9.55725376 C0,8.85014055 0.235704403,8.26087955 0.707113209,7.73054464 C0.707113209,7.67161854 0.766039309,7.67161854 0.82496541,7.67161854 C1.35530032,7.08235753 2.06241353,6.78772703 2.88737894,6.78772703 C3.71234435,6.78772703 4.41945755,7.08235753 4.94979246,7.67161854 C5.00871856,7.67161854 5.06764466,7.67161854 5.12657076,7.73054464 Z M1.17869879,4.72525458 C1.11977269,4.19491967 1.29655099,3.78243697 1.6501076,3.42888036 C2.0036642,3.07532376 2.41614691,2.89854545 2.94648181,2.95747156 C3.41789062,2.89854545 3.83037333,3.07532376 4.18392993,3.42888036 C4.47856043,3.78243697 4.65533874,4.19491967 4.71426484,4.72525458 C4.65533874,5.19666338 4.47856043,5.60914609 4.18392993,5.96270269 C3.83037333,6.2573332 3.41789062,6.4930376 2.94648181,6.4930376 C2.41614691,6.4930376 2.0036642,6.2573332 1.6501076,5.96270269 C1.29655099,5.60914609 1.11977269,5.19666338 1.17869879,4.72525458 Z M7.12999926,2.95747156 C6.77644266,3.31102816 6.36395995,3.48780646 5.89255115,3.48780646 C5.36221624,3.48780646 4.94973354,3.31102816 4.59617693,2.95747156 C4.24262033,2.66284105 4.06584202,2.25035835 4.12476812,1.77894954 L4.12476812,1.72002344 C4.06584202,1.18968853 4.24262033,0.777205828 4.59617693,0.482575325 C4.94973354,0.12901872 5.36221624,-0.0477595819 5.89255115,0.0111665188 C6.36395995,-0.0477595819 6.77644266,0.12901872 7.12999926,0.482575325 C7.42462977,0.836131929 7.60140807,1.24861463 7.60140807,1.77894954 C7.60140807,2.25035835 7.42462977,2.66284105 7.12999926,2.95747156 Z"/>
		</g>
    </symbol>
	
	
    <symbol id="symbol_node_VJ_Department_2">
        <g transform="translate(8.5,8.5)">
            <path d="M0.5,0.746661593 C0.5,0.393155497 0.782804877,0.075 1.10096037,0.075 L9.33765253,0.075 C9.69115864,0.075 9.97396352,0.357804877 9.97396352,0.746661593 L9.97396352,17.396799 C9.9739635,17.7503051 9.69115862,18.0684606 9.33765253,18.0684606 L1.13631099,18.0684606 C0.782804877,18.0684606 0.5,17.7856557 0.5,17.396799 L0.5,0.746661593 Z M4.60067078,14.9222563 L4.60067078,12.0942075 L2.12612806,12.0942075 L2.12612806,14.9222563 L4.60067078,14.9222563 Z M4.60067078,10.3266769 L4.60067078,7.14512203 L2.12612806,7.14512203 L2.12612806,10.3266769 L4.60067078,10.3266769 Z M4.60067078,5.37759152 L4.60067078,2.54954271 L2.12612806,2.54954271 L2.12612806,5.37759152 L4.60067078,5.37759152 Z M8.84274399,14.9222563 L8.84274399,12.0942075 L6.36820128,12.0942075 L6.36820128,14.9222563 L8.84274399,14.9222563 Z M8.84274399,10.3266769 L8.84274399,7.14512203 L6.36820128,7.14512203 L6.36820128,10.3266769 L8.84274399,10.3266769 Z M8.84274399,5.37759152 L8.84274399,2.54954271 L6.36820128,2.54954271 L6.36820128,5.37759152 L8.84274399,5.37759152 Z M10.4688721,8.38239339 C10.4688721,8.27634155 10.5749239,8.20564034 10.6809757,8.20564034 L17.9632014,8.20564034 C18.0692532,8.20564034 18.1399545,8.27634155 18.1399545,8.38239339 L18.1399545,17.8917075 C18.1399545,17.9977593 18.0692532,18.0684606 17.9632014,18.0684606 L16.2310215,18.0684606 C16.1249697,18.0684606 16.0542685,17.9977594 16.0542685,17.8917075 L16.0542685,13.6849849 C16.0542685,13.5789331 15.9835673,13.5082319 15.8775154,13.5082319 L12.7313111,13.5082319 C12.6252593,13.5082318 12.5545581,13.5789331 12.5545581,13.6849849 L12.5545581,17.8917075 C12.5545581,17.9977593 12.4838569,18.0684606 12.377805,18.0684606 L10.6456251,18.0684606 C10.5395733,18.0684606 10.4688721,17.9977594 10.4688721,17.8917075 L10.4688721,8.38239339 Z M18.0692532,7.3925763 L10.6456251,7.3925763 C10.5749239,7.3925763 10.5042227,7.32187508 10.5042227,7.25117387 L10.5042227,5.58969518 C10.5042227,5.51899396 10.5749239,5.44829274 10.6456251,5.44829274 L18.0692532,5.44829274 C18.1399545,5.44829274 18.2106557,5.51899396 18.2106557,5.58969518 L18.2106557,7.25117387 C18.2106557,7.32187508 18.1399545,7.3925763 18.0692532,7.3925763 Z"/>
        </g>
    </symbol>

    <symbol id="symbol_node_End">
        <g transform="translate(6,13.5)">
            <path d="M0.492,0.432 L6.564,0.432 L6.564,1.284 L1.476,1.284 L1.476,4.152 L6.276,4.152 L6.276,5.004 L1.476,5.004 L1.476,8.148 L6.768,8.148 L6.768,9 L0.492,9 L0.492,0.432 Z M8.136,0.432 L9.168,0.432 L14.016,7.404 L14.052,7.404 L14.052,0.432 L15.036,0.432 L15.036,9 L14.028,9 L9.156,1.956 L9.12,1.956 L9.12,9 L8.136,9 L8.136,0.432 Z M16.764,0.432 L19.836,0.432 C21.192,0.432 22.212,0.816 22.908,1.608 C23.544,2.328 23.868,3.372 23.868,4.716 C23.868,6.036 23.52,7.08 22.836,7.824 C22.116,8.604 21.084,9 19.74,9 L16.764,9 L16.764,0.432 Z M17.748,1.284 L17.748,8.148 L19.572,8.148 C20.688,8.148 21.528,7.848 22.092,7.26 C22.62,6.684 22.896,5.832 22.896,4.716 C22.896,3.564 22.644,2.712 22.152,2.16 C21.624,1.572 20.808,1.284 19.68,1.284 L17.748,1.284 Z"/>
        </g>
    </symbol>

    <symbol id="symbol_node_FormField">
        <g transform="translate(8,8)">
		<path d="M12.495,15.47 L14.875,15.47 L14.875,16.065 L16.065,16.065 L16.065,17.85 L1.785,17.85 L1.785,16.065 L2.975,16.065 L2.975,15.47 L5.355,15.47 L5.355,13.685 L0,13.685 L0,0 L17.85,0 L17.85,13.685 L12.495,13.685 L12.495,15.47 Z M12.6735,12.495 L16.66,12.495 L16.66,1.19 L1.19,1.19 L1.19,12.495 L5.1765,12.495 C5.236,12.5545 5.2955,12.5545 5.355,12.5545 L12.495,12.5545 C12.5545,12.5545 12.614,12.5545 12.6735,12.495 Z M12.4948215,2.975 C13.0898215,2.975 13.5658215,3.213 13.9823215,3.6295 C14.3988215,3.9865 14.5773215,4.522 14.5773215,5.0575 C14.5773215,5.6525 14.3988215,6.1285 13.9823215,6.545 C13.5658215,6.9615 13.0898215,7.14 12.4948215,7.14 C11.9593215,7.14 11.5428215,6.9615 11.1263215,6.664 C11.1858215,6.6045 11.1858215,6.545 11.2453215,6.4855 C11.4833215,6.0095 11.6023215,5.593 11.6023215,5.0575 C11.6023215,4.5815 11.4833215,4.1055 11.2453215,3.689 C11.2453215,3.6295 11.1858215,3.57 11.1263215,3.5105 C11.5428215,3.1535 11.9593215,2.975 12.4948215,2.975 Z M6.7830595,3.5104405 C6.7235595,3.5699405 6.6640595,3.6294405 6.6640595,3.6889405 C6.3665595,4.1054405 6.2475595,4.5814405 6.2475595,5.0574405 C6.2475595,5.5929405 6.3665595,6.0094405 6.6640595,6.4854405 C6.7235595,6.5449405 6.7235595,6.6044405 6.7830595,6.6639405 C6.3665595,6.9614405 5.8905595,7.1399405 5.3550595,7.1399405 C4.8195595,7.1399405 4.2840595,6.9614405 3.9270595,6.5449405 C3.5105595,6.1284405 3.2725595,5.6524405 3.2725595,5.0574405 C3.2725595,4.5219405 3.5105595,3.9864405 3.9270595,3.6294405 C4.2840595,3.2129405 4.8195595,2.9749405 5.3550595,2.9749405 C5.8905595,2.9749405 6.3665595,3.1534405 6.7830595,3.5104405 Z M8.9248215,2.975 C9.5198215,2.975 9.9958215,3.213 10.4123215,3.6295 C10.8288215,3.9865 11.0073215,4.522 11.0073215,5.0575 C11.0073215,5.6525 10.8288215,6.1285 10.4123215,6.545 C9.9958215,6.9615 9.5198215,7.14 8.9248215,7.14 C8.3893215,7.14 7.8538215,6.9615 7.4968215,6.545 C7.0803215,6.1285 6.8423215,5.6525 6.8423215,5.0575 C6.8423215,4.522 7.0803215,3.9865 7.4968215,3.6295 C7.8538215,3.213 8.3893215,2.975 8.9248215,2.975 Z M6.4855595,7.913381 C6.3070595,8.091881 6.1285595,8.210881 5.9500595,8.389381 C5.8905595,8.448881 5.8905595,8.448881 5.8905595,8.508381 C5.8310595,8.567881 5.7715595,8.627381 5.7715595,8.686881 L5.7715595,8.627381 C5.1170595,9.341381 4.7600595,10.293381 4.7600595,11.364381 L4.7600595,11.959381 L1.7850595,11.959381 L1.7850595,11.364381 C1.7850595,10.412381 2.0825595,9.638881 2.6775595,8.984381 C2.6775595,8.924881 2.7370595,8.865381 2.7965595,8.805881 C3.4510595,8.091881 4.3435595,7.734881 5.3550595,7.734881 C5.7120595,7.734881 6.1285595,7.794381 6.4855595,7.913381 Z M6.3664405,8.805881 C7.0209405,8.091881 7.9134405,7.734881 8.9249405,7.734881 C9.8769405,7.734881 10.7099405,8.091881 11.4239405,8.805881 C11.4834405,8.865381 11.5429405,8.924881 11.6024405,8.984381 C12.1379405,9.638881 12.4354405,10.412381 12.4949405,11.364381 L12.4949405,11.959381 L5.3549405,11.959381 L5.3549405,11.364381 C5.3549405,10.412381 5.6524405,9.638881 6.2474405,8.984381 C6.2474405,8.924881 6.3069405,8.865381 6.3664405,8.805881 Z M11.3048215,7.9729405 C11.6618215,7.7944405 12.0783215,7.7349405 12.4948215,7.7349405 C13.4468215,7.7349405 14.2798215,8.0919405 14.9938215,8.8059405 C15.0533215,8.8654405 15.1128215,8.9249405 15.1723215,8.9844405 C15.7078215,9.6389405 16.0053215,10.4124405 16.0648215,11.3644405 L16.0648215,11.9594405 L13.0898215,11.9594405 L13.0898215,11.3644405 C13.0303215,10.2934405 12.7328215,9.3414405 12.0188215,8.6274405 L12.0188215,8.5679405 L11.8403215,8.3894405 C11.6618215,8.2109405 11.4833215,8.0919405 11.3048215,7.9729405 Z"/>
        </g>
    </symbol>

    <symbol id="symbol_node_Level">
        <g transform="translate(8,8)">
		<path d="M15.4104405,2.38 C15.4104405,3.0345 15.2319405,3.6295 14.7559405,4.1055 C14.2799405,4.522 13.7444405,4.76 13.0304405,4.76 C12.4354405,4.76 11.8404405,4.522 11.4239405,4.1055 C10.9479405,3.6295 10.6504405,3.0345 10.6504405,2.38 C10.6504405,1.7255 10.9479405,1.19 11.4239405,0.714 C11.8404405,0.238 12.4354405,0 13.0304405,0 C13.7444405,0 14.2799405,0.238 14.7559405,0.714 C15.2319405,1.19 15.4104405,1.7255 15.4104405,2.38 Z M13.0304405,5.355 C14.2204405,5.355 15.2319405,5.7715 16.0054405,6.6045 C16.0054405,6.664 16.1244405,6.7235 16.1839405,6.783 C16.8384405,7.497 17.1954405,8.449 17.1954405,9.4605 L17.1954405,11.305 L11.2454405,11.305 L10.5909405,6.188 C10.5909405,6.188 10.6504405,6.1285 10.7099405,6.069 C10.7694405,6.069 10.8289405,6.0095 10.8884405,6.0095 C11.2454405,5.7715 11.6024405,5.593 12.0189405,5.474 C12.1379405,5.474 12.1379405,5.474 12.2569405,5.4145 L12.4949405,5.4145 C12.6734405,5.355 12.8519405,5.355 13.0304405,5.355 Z M1.785,7.14 L8.8655,7.14 L7.6755,11.305 L0.595,11.186 L1.785,7.14 Z M10.0554405,11.305 L8.2704405,11.305 L9.4009405,7.5565 C9.4009405,7.497 9.4604405,7.378 9.4604405,7.14 L10.0554405,11.305 Z M0,14.875 L0,11.9 L17.7905,11.9 L17.7905,14.875 L16.6005,14.875 L16.6005,17.85 L1.19,17.85 L1.19,14.875 L0,14.875 Z"/>
        </g>
    </symbol>

    <symbol id="symbol_node_Post">
        <g transform="translate(8.5,8.5)">
		<path d="M16.065119,6.6045595 C16.124619,6.6640595 16.184119,6.7235595 16.243619,6.7830595 C16.898119,7.4970595 17.255119,8.4490595 17.314619,9.4605595 L17.314619,10.7100595 L8.984619,10.7100595 L8.984619,9.4605595 C8.984619,8.4490595 9.341619,7.4970595 9.996119,6.7830595 C10.055619,6.7235595 10.115119,6.6640595 10.174619,6.6045595 C11.007619,5.7715595 11.959619,5.3550595 13.149619,5.3550595 C14.280119,5.3550595 15.291619,5.7715595 16.065119,6.6045595 Z M13.1495,4.76 C12.495,4.76 11.9,4.522 11.4835,4.1055 C11.0075,3.6295 10.7695,3.0345 10.7695,2.38 C10.7695,1.7255 11.0075,1.19 11.4835,0.714 C11.9,0.238 12.495,0 13.1495,0 C13.804,0 14.3395,0.238 14.8155,0.714 C15.2915,1.19 15.5295,1.7255 15.5295,2.38 C15.5295,3.0345 15.2915,3.6295 14.8155,4.1055 C14.3395,4.522 13.804,4.76 13.1495,4.76 Z M1.9635,2.975 L2.975,2.38 L7.021,8.9845 L6.0095,9.5795 L4.522,7.1995 L2.4395,8.33 L2.4395,11.305 L18.445,11.305 L18.445,14.28 L17.3145,14.28 L17.3145,17.85 L14.3395,17.85 L14.3395,14.28 L4.2245,14.28 L4.2245,17.85 L1.2495,17.85 L1.2495,14.28 L1.77635684e-15,14.28 L1.77635684e-15,11.305 L1.2495,11.305 L1.2495,7.14 L3.689,5.831 L1.9635,2.975 Z"/>
        </g>
    </symbol>

    <symbol id="symbol_node_Role">
        <g transform="translate(8.5,8.5)">
		<path d="M0,0 L17.85,0 L17.85,13.684405 L12.495,13.684405 L12.495,15.47 L14.875,15.47 L14.875,16.065 L16.065,16.065 L16.065,17.85 L1.785,17.85 L1.785,16.065 L2.975,16.065 L2.975,15.47 L5.355,15.47 L5.355,13.684405 L0,13.684405 L0,0 Z M1.19,12.495 L16.66,12.495 L16.66,1.19 L1.19,1.19 L1.19,12.495 Z M11.3536321,4.22644792 C11.3536321,4.87575347 11.110775,5.46603125 10.6250607,5.93825347 C10.1393464,6.41047569 9.59291786,6.58755903 8.92506071,6.58755903 C8.19648929,6.58755903 7.65006071,6.41047569 7.22506071,5.93825347 C6.67863214,5.46603125 6.435775,4.93478125 6.49648929,4.22644792 C6.435775,3.57714236 6.67863214,2.98686458 7.22506071,2.57367014 C7.65006071,2.04242014 8.19648929,1.80630903 8.92506071,1.86533681 C9.59291786,1.80630903 10.2000607,2.04242014 10.6250607,2.57367014 C11.110775,2.98686458 11.3536321,3.57714236 11.3536321,4.22644792 Z M5.70702143,8.59444444 C5.76773571,8.53541667 5.82845,8.47638889 5.88916429,8.41736111 C6.73916429,7.59097222 7.71059286,7.17777778 8.92487857,7.17777778 C10.07845,7.17777778 11.1105929,7.59097222 11.8998786,8.41736111 C11.9605929,8.47638889 12.0213071,8.53541667 12.0820214,8.59444444 C12.7498786,9.30277778 13.1141643,10.2472222 13.1748786,11.2506944 L13.1748786,11.9 L4.67487857,11.9 L4.67487857,11.2506944 C4.67487857,10.2472222 5.03916429,9.30277778 5.70702143,8.59444444 Z"/>
        </g>
    </symbol>

    <symbol id="symbol_node_SuperNode">
        <g transform="translate(9,10)">
		<path d="M15.119721,2.78494365 L8.29685404,2.78494365 C8.17083334,2.78494365 7.98268977,2.79044749 7.79099631,2.83814745 C7.3259622,2.9518935 6.96742444,3.19773174 6.6319609,3.77930429 C6.44026744,4.10953476 6.40831853,4.57369204 6.47754117,4.94061479 C6.54853874,5.3167106 6.7402322,5.68363335 7.01002298,5.93497543 C7.02599744,5.9441485 7.03664708,5.9569908 7.05084659,5.96799848 C8.06433698,6.84861307 9.12575073,7.76775455 9.35294297,7.96589283 C9.66178243,8.23558105 9.88897467,8.76028058 9.43814006,9.33268007 C9.23579697,9.58952599 8.6553918,9.7784912 8.17615816,9.36019927 L7.12894392,8.44656163 L6.24679905,9.51797605 C6.2805229,9.55283371 6.82720423,10.0023141 7.35436123,10.4939906 C7.92766665,11.0278632 8.57729446,11.0553824 8.8719344,11.0627208 C8.8808091,11.0627208 8.88968379,11.0608862 8.89855849,11.0608862 C9.5073627,11.0131862 10.0913178,10.8444018 10.6486487,10.1197294 C11.197105,9.40789923 11.3958982,7.94387747 10.3309346,6.97153219 C10.3309346,6.97153219 10.3167351,6.95868989 10.2918859,6.93667453 C10.025645,6.7055132 8.50274701,5.3827567 8.50274701,5.3827567 C8.50274701,5.3827567 8.24715574,5.15893382 8.14243431,5.07270698 C7.97913989,4.93511095 7.92944159,4.702115 7.99688928,4.53149592 C8.05901216,4.37555376 8.17438322,4.193927 8.48677255,4.193927 L16.0746384,4.19759622 L17.1786507,5.8377409 C17.5354135,6.36794427 17.4786155,7.08711286 17.0384305,7.54576629 L9.62983352,15.3006785 C9.12220085,15.8327165 8.28797934,15.8327165 7.78034668,15.3006785 L0.373524621,7.54209706 C-0.0666603467,7.08344363 -0.123458407,6.36427504 0.23330441,5.83407168 L3.77430848,0.574234099 C4.01925012,0.216484421 4.4150616,0 4.84104706,0 L12.572683,0 C12.9986685,0 13.39448,0.216484421 13.6358717,0.577903326 L15.119721,2.78494365 Z"/>
        </g>
    </symbol>

    <symbol id="symbol_node_Team">
        <g transform="translate(8,9)">
            <path d="M13.1556239,5.31452275 C13.1556239,5.25539232 13.1556239,5.25539232 13.2135784,5.25539232 C13.8510784,4.5458271 14.7203966,4.25017493 15.6476693,4.25017493 C16.6328966,4.25017493 17.4442602,4.5458271 18.1397148,5.25539232 C18.1397148,5.25539232 18.1976693,5.31452275 18.2556239,5.43278362 C18.7772148,6.02408797 19.0669875,6.79278362 19.124942,7.67974014 L19.124942,11.6414793 C19.124942,11.7006097 19.124942,11.8188706 19.0669875,11.9371314 C19.0669875,11.9962619 18.9510784,12.1145228 18.8931239,12.2327836 C18.7192602,12.4101749 18.487442,12.5284358 18.2556239,12.5284358 C18.0238057,12.5284358 17.849942,12.4101749 17.6181239,12.2327836 C17.5022148,12.0553923 17.3863057,11.8188706 17.3863057,11.6414793 L17.3863057,16.9632184 C17.3863057,17.1406097 17.3283511,17.3771314 17.1544875,17.5545228 C16.9806239,17.7319141 16.7488057,17.8501749 16.5169875,17.8501749 C16.4010784,17.8501749 16.2851693,17.7910445 16.1692602,17.7319141 C16.1113057,17.6727836 15.9953966,17.6136532 15.8794875,17.5545228 C15.7635784,17.3771314 15.6476693,17.1406097 15.6476693,16.9632184 C15.6476693,17.1406097 15.5897148,17.3771314 15.4158511,17.5545228 C15.299942,17.6136532 15.2419875,17.6727836 15.1260784,17.7319141 C15.0101693,17.7910445 14.8942602,17.8501749 14.7783511,17.8501749 C14.546533,17.8501749 14.3726693,17.7319141 14.1408511,17.5545228 C14.024942,17.3771314 13.909033,17.1406097 13.909033,16.9632184 L13.909033,7.67974014 C13.8510784,6.85191406 13.6772148,6.08321841 13.271533,5.43278362 L13.271533,5.49191406 C13.271533,5.43278362 13.2135784,5.37365319 13.1556239,5.31452275 Z M14.1172417,0.45339 C14.3998537,0.11339 14.8520329,5.66666667e-05 15.3042121,5.66666667e-05 L15.3607345,5.66666667e-05 C15.8129137,5.66666667e-05 16.2085705,0.11339 16.5477049,0.45339 C16.8303169,0.79339 16.9998841,1.19005667 16.9998841,1.70005667 C16.9998841,2.15339 16.8303169,2.55005667 16.5477049,2.89005667 C16.2085705,3.17339 15.8129137,3.40005667 15.3607345,3.40005667 C14.8520329,3.40005667 14.3998537,3.17339 14.1172417,2.89005667 C13.7781073,2.55005667 13.5520177,2.15339 13.6085401,1.70005667 C13.5520177,1.19005667 13.7781073,0.79339 14.1172417,0.45339 Z M12.2717591,5.43266536 C12.8136341,6.02396971 13.1146758,6.79266536 13.1748841,7.67962188 L13.1748841,11.641361 C13.1748841,11.7004914 13.1748841,11.8187523 13.1146758,11.9370132 C13.1146758,11.9961436 12.9942591,12.1144045 12.9340508,12.2326654 C12.7534258,12.4100567 12.5125924,12.5283175 12.2717591,12.5283175 C12.0309258,12.5283175 11.8503008,12.4100567 11.6094674,12.2326654 C11.4890508,12.0552741 11.3686341,11.8187523 11.3686341,11.641361 L11.3686341,16.9631001 C11.3686341,17.1404914 11.3084258,17.3770132 11.1278008,17.5544045 C10.9471758,17.7317958 10.7063424,17.8500567 10.4655091,17.8500567 C10.3450924,17.8500567 10.2246758,17.7909262 10.1042591,17.7317958 C10.0440508,17.6726654 9.92363409,17.6135349 9.80321742,17.5544045 C9.68280076,17.3770132 9.56238409,17.1404914 9.56238409,16.9631001 C9.56238409,17.1404914 9.50217576,17.3770132 9.32155076,17.5544045 C9.20113409,17.6135349 9.14092576,17.6726654 9.02050909,17.7317958 C8.90009242,17.7909262 8.77967576,17.8500567 8.65925909,17.8500567 C8.41842576,17.8500567 8.23780076,17.7317958 7.99696742,17.5544045 C7.87655076,17.3770132 7.75613409,17.1404914 7.75613409,16.9631001 L7.75613409,11.641361 C7.75613409,11.8187523 7.69592576,12.0552741 7.51530076,12.2326654 C7.33467576,12.4100567 7.09384242,12.5283175 6.85300909,12.5283175 C6.61217576,12.5283175 6.43155076,12.4100567 6.25092576,12.2326654 C6.07030076,12.0552741 5.94988409,11.8187523 5.94988409,11.641361 L5.94988409,7.67962188 C6.01009242,6.79266536 6.31113409,6.02396971 6.85300909,5.43266536 C6.91321742,5.31440449 6.97342576,5.25527406 7.03363409,5.25527406 C7.69592576,4.54570884 8.59905076,4.25005667 9.56238409,4.25005667 C10.5859258,4.25005667 11.4288424,4.54570884 12.1513424,5.25527406 C12.1513424,5.25527406 12.2115508,5.31440449 12.2717591,5.43266536 Z M9.71416981,0 C10.1998841,0 10.6248841,0.113333333 10.9891698,0.453333333 C11.2927412,0.793333333 11.4748841,1.19 11.4748841,1.7 C11.4748841,2.15333333 11.2927412,2.55 10.9891698,2.89 C10.6248841,3.17333333 10.1998841,3.4 9.71416981,3.4 C9.16774123,3.4 8.68202695,3.17333333 8.37845552,2.89 C8.01416981,2.55 7.77131266,2.15333333 7.83202695,1.7 C7.77131266,1.19 8.01416981,0.793333333 8.37845552,0.453333333 C8.68202695,0.113333333 9.16774123,0 9.65345552,0 L9.71416981,0 Z M1.04318182,5.25533319 C1.68068182,4.54576797 2.55,4.2501158 3.47727273,4.2501158 C4.4625,4.2501158 5.27386364,4.54576797 5.96931818,5.25533319 L6.02727273,5.31446362 C5.96931818,5.37359406 5.91136364,5.43272449 5.91136364,5.49185493 L5.91136364,5.43272449 C5.50568182,6.08315928 5.27386364,6.85185493 5.21590909,7.67968101 L5.21590909,16.9631593 C5.21590909,17.1405506 5.15795455,17.3770723 4.98409091,17.5544636 C4.81022727,17.7318549 4.57840909,17.8501158 4.34659091,17.8501158 C4.23068182,17.8501158 4.11477273,17.7909854 3.99886364,17.7318549 C3.94090909,17.6727245 3.825,17.6135941 3.76704545,17.5544636 C3.59318182,17.3770723 3.47727273,17.1405506 3.47727273,16.9631593 C3.47727273,17.1405506 3.41931818,17.3770723 3.24545455,17.5544636 C3.12954545,17.6135941 3.07159091,17.6727245 2.95568182,17.7318549 C2.83977273,17.7909854 2.72386364,17.8501158 2.60795455,17.8501158 C2.37613636,17.8501158 2.20227273,17.7318549 2.02840909,17.5544636 C1.85454545,17.3770723 1.73863636,17.1405506 1.73863636,16.9631593 L1.73863636,11.6414201 C1.73863636,11.8188114 1.68068182,12.0553332 1.50681818,12.2327245 C1.33295455,12.4101158 1.10113636,12.5283767 0.869318182,12.5283767 C0.6375,12.5283767 0.463636364,12.4101158 0.289772727,12.2327245 C0.115909091,12.0553332 0,11.8188114 0,11.6414201 L0,7.67968101 C0.0579545455,6.79272449 0.347727273,6.02402884 0.869318182,5.43272449 C0.927272727,5.31446362 0.985227273,5.25533319 1.04318182,5.25533319 Z M3.45655076,0 C3.90988409,0 4.30655076,0.113333333 4.64655076,0.453333333 C4.92988409,0.793333333 5.09988409,1.19 5.09988409,1.7 C5.09988409,2.15333333 4.92988409,2.55 4.64655076,2.89 C4.30655076,3.17333333 3.90988409,3.4 3.45655076,3.4 C2.94655076,3.4 2.54988409,3.17333333 2.20988409,2.89 C1.86988409,2.55 1.69988409,2.15333333 1.69988409,1.7 C1.69988409,1.19 1.86988409,0.793333333 2.20988409,0.453333333 C2.49321742,0.113333333 2.94655076,0 3.39988409,0 L3.45655076,0 Z"/>
        </g>
    </symbol>

    <symbol id="symbol_node_VJ_AccountTag">
        <g transform="translate(9,9)">
		<path d="M17.4942138,0.505260219 L17.498948,9.01892396 L8.59339794,17.925 L0.075,9.40555002 L8.98055002,0.5 L17.4942138,0.505260219 Z M14.7720507,4.86072119 L14.7720507,3.77185594 L14.227618,3.22794934 L13.1387528,3.22794934 L12.5943202,3.77185594 L12.5943202,4.86072119 L13.1387528,5.40515381 L14.227618,5.40515381 L14.7720507,4.86072119 Z"/>
        </g>
    </symbol>

</svg>