<?xml version="1.0" encoding="UTF-8"?>
<svg width="23px" height="23px" viewBox="0 0 23 23" version="1.1" xmlns="http://www.w3.org/2000/svg" xmlns:xlink="http://www.w3.org/1999/xlink">
    <!-- Generator: Sketch 53 (72520) - https://sketchapp.com -->
    <title>branch_handSelect</title>
    <desc>Created with Sketch.</desc>
    <g id="基础内容" stroke="none" stroke-width="1" fill="none" fill-rule="evenodd">
        <g id="流程图内图标-copy-2" transform="translate(-941.000000, -189.000000)" fill-rule="nonzero">
            <g id="branch_handSelect" transform="translate(941.000000, 189.000000)">
                <circle id="Oval-2-Copy-4" stroke="#FFFFFF" fill="#B7B7B7" cx="11.5" cy="11.5" r="11"></circle>
                <path d="M14.4698246,10.149409 L12.2589336,14.0964027 L12.2471422,14.0964027 L12.2471422,14.1024012 L8.92196212,14.1024012 C8.64486378,14.1024012 8.36776544,13.8204731 8.36776544,13.538545 C8.36776544,13.2566168 8.64486378,12.9746887 8.92196212,12.9746887 L9.48205451,12.9746887 L9.48205451,12.9686902 L11.6988412,12.9686902 L13.9156279,9.02169645 L17.2172252,9.02169645 L17.2172252,7.96596559 C17.382305,7.79800841 17.606342,7.79800841 17.7714219,7.96596559 L19.8761901,9.42959247 C20.04127,9.60354812 20.04127,9.82549154 19.8761901,9.93946249 L17.7714219,11.3491031 C17.606342,11.5170603 17.382305,11.5170603 17.2172252,11.3491031 L17.2172252,10.149409 L14.4698246,10.149409 Z M17.7714219,15.2361122 L19.8761901,16.6997391 C20.04127,16.8736947 20.04127,17.0956381 19.8761901,17.2096091 L17.7714219,18.6192497 C17.606342,18.7872069 17.382305,18.7872069 17.2172252,18.6192497 L17.2172252,17.4795403 L15.0240213,17.4795403 C14.9120028,17.3115831 13.3614313,14.660259 13.3614313,14.660259 L13.9156279,13.5325465 L15.578218,16.3518278 L17.2172252,16.3518278 L17.2172252,15.2361122 C17.382305,15.068155 17.606342,15.068155 17.7714219,15.2361122 Z M4,5 L5.29279161,5 L7.58584535,10.2844037 L7.62359109,10.2844037 L9.90720839,5 L11.2,5 L11.2,11.7376147 L10.0959371,11.7376147 L10.0959371,7.0948886 L10.0581913,7.0948886 L8.07653997,11.7376147 L7.12346003,11.7376147 L5.14180865,7.0948886 L5.10406291,7.0948886 L5.10406291,11.7376147 L4,11.7376147 L4,5 Z" id="强制自动分支" fill="#FFFFFF"></path>
            </g>
        </g>
    </g>
</svg>