<?xml version="1.0" encoding="UTF-8"?>
<svg width="23px" height="23px" viewBox="0 0 23 23" version="1.1" xmlns="http://www.w3.org/2000/svg" xmlns:xlink="http://www.w3.org/1999/xlink">
    <!-- Generator: Sketch 53 (72520) - https://sketchapp.com -->
    <title>branch_forceAutoCondition Copy 2</title>
    <desc>Created with Sketch.</desc>
    <g id="基础内容" stroke="none" stroke-width="1" fill="none" fill-rule="evenodd">
        <g id="流程图内图标-copy-2" transform="translate(-986.000000, -189.000000)" fill-rule="nonzero">
            <g id="branch_forceAutoCondition-Copy-2" transform="translate(986.000000, 189.000000)">
                <circle id="Oval-2-Copy-4" stroke="#FFFFFF" fill="#B7B7B7" cx="11.5" cy="11.5" r="11"></circle>
                <path d="M14.1184095,10.4744213 L12.0381053,14.1882849 L12.0270104,14.1882849 L12.0270104,14.1939291 L8.89823291,14.1939291 C8.63750145,14.1939291 8.37677,13.9286531 8.37677,13.6633771 C8.37677,13.3981012 8.63750145,13.1328252 8.89823291,13.1328252 L9.4252433,13.1328252 L9.4252433,13.127181 L11.511095,13.127181 L13.5969466,9.41331741 L16.7035342,9.41331741 L16.7035342,8.41994356 C16.8588636,8.26190681 17.0696677,8.26190681 17.2249971,8.41994356 L19.2054467,9.79712094 C19.360776,9.96080186 19.360776,10.1696361 19.2054467,10.2768754 L17.2249971,11.6032552 C17.0696677,11.761292 16.8588636,11.761292 16.7035342,11.6032552 L16.7035342,10.4744213 L14.1184095,10.4744213 Z M17.9030534,15.2811302 L19.883503,16.6583075 C20.0388323,16.8219885 20.0388323,17.0308227 19.883503,17.138062 L17.9030534,18.4644418 C17.747724,18.6224786 17.5369199,18.6224786 17.3815905,18.4644418 L17.3815905,17.3920496 L15.3179287,17.3920496 C15.2125267,17.2340128 13.75354,14.7392899 13.75354,14.7392899 L14.2750029,13.678186 L15.8393916,16.3309457 L17.3815905,16.3309457 L17.3815905,15.2811302 C17.5369199,15.1230934 17.747724,15.1230934 17.9030534,15.2811302 Z M3.26188835,7.0564898 L7.16037821,8.80904222 C7.50514262,8.9714793 7.65321451,8.9714793 8.02670929,8.80904222 L11.9251992,7.0564898 C12.2125028,6.92278309 12.2213429,6.35370082 11.9251992,6.19126374 L8.02670929,4.13262241 C7.72062038,3.95140009 7.50514262,3.9602402 7.16037821,4.13262241 L3.26188835,6.19126374 C2.96574456,6.38243118 2.95579943,6.89405273 3.26188835,7.0564898 Z M3.26188835,8.89302329 L7.16037821,10.6455757 C7.50514262,10.8080128 7.65321451,10.8080128 8.02670929,10.6455757 L11.9251992,8.89302329 C12.1174716,8.80351715 12.1881925,8.38140175 12.1881925,8.15487385 C11.9373543,8.27974045 11.5826448,8.45875274 11.5760147,8.46096277 L7.59354375,10.2952862 L3.61217783,8.45985775 C3.625438,8.46869787 3.25967832,8.30294575 3,8.15376884 C3,8.37587668 3.05525071,8.78252188 3.26188835,8.89302329 L3.26188835,8.89302329 Z M7.59354375,12.1318197 L3.61217783,10.2952862 C3.625438,10.3041263 3.25967832,10.1383742 3,9.98919731 C3,10.2113052 3.05635572,10.6179504 3.26299336,10.7273468 L7.16037821,12.4810042 C7.50514262,12.6434413 7.65321451,12.6434413 8.02670929,12.4810042 L11.9251992,10.7284518 C12.1174716,10.6389456 12.1881925,10.2168302 12.1881925,9.99030233 C11.9373543,10.1151689 11.5826448,10.2941812 11.5760147,10.2963912 L7.59354375,12.1318197 Z" id="强制自动分支" fill="#FFFFFF"></path>
            </g>
        </g>
    </g>
</svg>