<?xml version="1.0" encoding="UTF-8"?>
<svg width="44px" height="44px" viewBox="0 0 44 44" version="1.1" xmlns="http://www.w3.org/2000/svg" xmlns:xlink="http://www.w3.org/1999/xlink">
    <!-- Generator: Sketch 52.2 (67145) - http://www.bohemiancoding.com/sketch -->
    <title>33_TeamCurent</title>
    <desc>Created with Sketch.</desc>
    <defs>
        <circle id="path-1" cx="17" cy="17" r="17"></circle>
        <filter x="-20.6%" y="-20.6%" width="141.2%" height="141.2%" filterUnits="objectBoundingBox" id="filter-2">
            <feMorphology radius="1" operator="dilate" in="SourceAlpha" result="shadowSpreadOuter1"></feMorphology>
            <feOffset dx="0" dy="0" in="shadowSpreadOuter1" result="shadowOffsetOuter1"></feOffset>
            <feGaussianBlur stdDeviation="2" in="shadowOffsetOuter1" result="shadowBlurOuter1"></feGaussianBlur>
            <feComposite in="shadowBlurOuter1" in2="SourceAlpha" operator="out" result="shadowBlurOuter1"></feComposite>
            <feColorMatrix values="0 0 0 0 0.960784314   0 0 0 0 0.650980392   0 0 0 0 0.137254902  0 0 0 0.25 0" type="matrix" in="shadowBlurOuter1"></feColorMatrix>
        </filter>
    </defs>
    <g id="基础内容" stroke="none" stroke-width="1" fill="none" fill-rule="evenodd">
        <g id="流程图内图标" transform="translate(-120.000000, -86.000000)">
            <g id="33_TeamCurent" transform="translate(125.000000, 91.000000)">
                <g id="Oval">
                    <use fill="black" fill-opacity="1" filter="url(#filter-2)" xlink:href="#path-1"></use>
                    <circle stroke="#FFFFFF" stroke-width="1" fill="#F5A623" fill-rule="evenodd" cx="17" cy="17" r="17.5"></circle>
                </g>
                <path d="M20.8056239,13.3895228 C20.8056239,13.3303923 20.8056239,13.3303923 20.8635784,13.3303923 C21.5010784,12.6208271 22.3703966,12.3251749 23.2976693,12.3251749 C24.2828966,12.3251749 25.0942602,12.6208271 25.7897148,13.3303923 C25.7897148,13.3303923 25.8476693,13.3895228 25.9056239,13.5077836 C26.4272148,14.099088 26.7169875,14.8677836 26.774942,15.7547401 L26.774942,19.7164793 C26.774942,19.7756097 26.774942,19.8938706 26.7169875,20.0121314 C26.7169875,20.0712619 26.6010784,20.1895228 26.5431239,20.3077836 C26.3692602,20.4851749 26.137442,20.6034358 25.9056239,20.6034358 C25.6738057,20.6034358 25.499942,20.4851749 25.2681239,20.3077836 C25.1522148,20.1303923 25.0363057,19.8938706 25.0363057,19.7164793 L25.0363057,25.0382184 C25.0363057,25.2156097 24.9783511,25.4521314 24.8044875,25.6295228 C24.6306239,25.8069141 24.3988057,25.9251749 24.1669875,25.9251749 C24.0510784,25.9251749 23.9351693,25.8660445 23.8192602,25.8069141 C23.7613057,25.7477836 23.6453966,25.6886532 23.5294875,25.6295228 C23.4135784,25.4521314 23.2976693,25.2156097 23.2976693,25.0382184 C23.2976693,25.2156097 23.2397148,25.4521314 23.0658511,25.6295228 C22.949942,25.6886532 22.8919875,25.7477836 22.7760784,25.8069141 C22.6601693,25.8660445 22.5442602,25.9251749 22.4283511,25.9251749 C22.196533,25.9251749 22.0226693,25.8069141 21.7908511,25.6295228 C21.674942,25.4521314 21.559033,25.2156097 21.559033,25.0382184 L21.559033,15.7547401 C21.5010784,14.9269141 21.3272148,14.1582184 20.921533,13.5077836 L20.921533,13.5669141 C20.921533,13.5077836 20.8635784,13.4486532 20.8056239,13.3895228 Z M21.7672417,8.52839 C22.0498537,8.18839 22.5020329,8.07505667 22.9542121,8.07505667 L23.0107345,8.07505667 C23.4629137,8.07505667 23.8585705,8.18839 24.1977049,8.52839 C24.4803169,8.86839 24.6498841,9.26505667 24.6498841,9.77505667 C24.6498841,10.22839 24.4803169,10.6250567 24.1977049,10.9650567 C23.8585705,11.24839 23.4629137,11.4750567 23.0107345,11.4750567 C22.5020329,11.4750567 22.0498537,11.24839 21.7672417,10.9650567 C21.4281073,10.6250567 21.2020177,10.22839 21.2585401,9.77505667 C21.2020177,9.26505667 21.4281073,8.86839 21.7672417,8.52839 Z M19.9217591,13.5076654 C20.4636341,14.0989697 20.7646758,14.8676654 20.8248841,15.7546219 L20.8248841,19.716361 C20.8248841,19.7754914 20.8248841,19.8937523 20.7646758,20.0120132 C20.7646758,20.0711436 20.6442591,20.1894045 20.5840508,20.3076654 C20.4034258,20.4850567 20.1625924,20.6033175 19.9217591,20.6033175 C19.6809258,20.6033175 19.5003008,20.4850567 19.2594674,20.3076654 C19.1390508,20.1302741 19.0186341,19.8937523 19.0186341,19.716361 L19.0186341,25.0381001 C19.0186341,25.2154914 18.9584258,25.4520132 18.7778008,25.6294045 C18.5971758,25.8067958 18.3563424,25.9250567 18.1155091,25.9250567 C17.9950924,25.9250567 17.8746758,25.8659262 17.7542591,25.8067958 C17.6940508,25.7476654 17.5736341,25.6885349 17.4532174,25.6294045 C17.3328008,25.4520132 17.2123841,25.2154914 17.2123841,25.0381001 C17.2123841,25.2154914 17.1521758,25.4520132 16.9715508,25.6294045 C16.8511341,25.6885349 16.7909258,25.7476654 16.6705091,25.8067958 C16.5500924,25.8659262 16.4296758,25.9250567 16.3092591,25.9250567 C16.0684258,25.9250567 15.8878008,25.8067958 15.6469674,25.6294045 C15.5265508,25.4520132 15.4061341,25.2154914 15.4061341,25.0381001 L15.4061341,19.716361 C15.4061341,19.8937523 15.3459258,20.1302741 15.1653008,20.3076654 C14.9846758,20.4850567 14.7438424,20.6033175 14.5030091,20.6033175 C14.2621758,20.6033175 14.0815508,20.4850567 13.9009258,20.3076654 C13.7203008,20.1302741 13.5998841,19.8937523 13.5998841,19.716361 L13.5998841,15.7546219 C13.6600924,14.8676654 13.9611341,14.0989697 14.5030091,13.5076654 C14.5632174,13.3894045 14.6234258,13.3302741 14.6836341,13.3302741 C15.3459258,12.6207088 16.2490508,12.3250567 17.2123841,12.3250567 C18.2359258,12.3250567 19.0788424,12.6207088 19.8013424,13.3302741 C19.8013424,13.3302741 19.8615508,13.3894045 19.9217591,13.5076654 Z M17.3641698,8.075 C17.8498841,8.075 18.2748841,8.18833333 18.6391698,8.52833333 C18.9427412,8.86833333 19.1248841,9.265 19.1248841,9.775 C19.1248841,10.2283333 18.9427412,10.625 18.6391698,10.965 C18.2748841,11.2483333 17.8498841,11.475 17.3641698,11.475 C16.8177412,11.475 16.3320269,11.2483333 16.0284555,10.965 C15.6641698,10.625 15.4213127,10.2283333 15.4820269,9.775 C15.4213127,9.265 15.6641698,8.86833333 16.0284555,8.52833333 C16.3320269,8.18833333 16.8177412,8.075 17.3034555,8.075 L17.3641698,8.075 Z M8.69318182,13.3303332 C9.33068182,12.620768 10.2,12.3251158 11.1272727,12.3251158 C12.1125,12.3251158 12.9238636,12.620768 13.6193182,13.3303332 L13.6772727,13.3894636 C13.6193182,13.4485941 13.5613636,13.5077245 13.5613636,13.5668549 L13.5613636,13.5077245 C13.1556818,14.1581593 12.9238636,14.9268549 12.8659091,15.754681 L12.8659091,25.0381593 C12.8659091,25.2155506 12.8079545,25.4520723 12.6340909,25.6294636 C12.4602273,25.8068549 12.2284091,25.9251158 11.9965909,25.9251158 C11.8806818,25.9251158 11.7647727,25.8659854 11.6488636,25.8068549 C11.5909091,25.7477245 11.475,25.6885941 11.4170455,25.6294636 C11.2431818,25.4520723 11.1272727,25.2155506 11.1272727,25.0381593 C11.1272727,25.2155506 11.0693182,25.4520723 10.8954545,25.6294636 C10.7795455,25.6885941 10.7215909,25.7477245 10.6056818,25.8068549 C10.4897727,25.8659854 10.3738636,25.9251158 10.2579545,25.9251158 C10.0261364,25.9251158 9.85227273,25.8068549 9.67840909,25.6294636 C9.50454545,25.4520723 9.38863636,25.2155506 9.38863636,25.0381593 L9.38863636,19.7164201 C9.38863636,19.8938114 9.33068182,20.1303332 9.15681818,20.3077245 C8.98295455,20.4851158 8.75113636,20.6033767 8.51931818,20.6033767 C8.2875,20.6033767 8.11363636,20.4851158 7.93977273,20.3077245 C7.76590909,20.1303332 7.65,19.8938114 7.65,19.7164201 L7.65,15.754681 C7.70795455,14.8677245 7.99772727,14.0990288 8.51931818,13.5077245 C8.57727273,13.3894636 8.63522727,13.3303332 8.69318182,13.3303332 Z M11.1065508,8.075 C11.5598841,8.075 11.9565508,8.18833333 12.2965508,8.52833333 C12.5798841,8.86833333 12.7498841,9.265 12.7498841,9.775 C12.7498841,10.2283333 12.5798841,10.625 12.2965508,10.965 C11.9565508,11.2483333 11.5598841,11.475 11.1065508,11.475 C10.5965508,11.475 10.1998841,11.2483333 9.85988409,10.965 C9.51988409,10.625 9.34988409,10.2283333 9.34988409,9.775 C9.34988409,9.265 9.51988409,8.86833333 9.85988409,8.52833333 C10.1432174,8.18833333 10.5965508,8.075 11.0498841,8.075 L11.1065508,8.075 Z" id="Combined-Shape" fill="#FFFFFF"></path>
            </g>
        </g>
    </g>
</svg>