<?xml version="1.0" encoding="UTF-8"?>
<svg width="44px" height="44px" viewBox="0 0 44 44" version="1.1" xmlns="http://www.w3.org/2000/svg" xmlns:xlink="http://www.w3.org/1999/xlink">
    <!-- Generator: Sketch 52.2 (67145) - http://www.bohemiancoding.com/sketch -->
    <title>31_Member</title>
    <desc>Created with Sketch.</desc>
    <defs>
        <rect id="path-1" x="0" y="0" width="34" height="34" rx="17"></rect>
        <filter x="-20.6%" y="-20.6%" width="141.2%" height="141.2%" filterUnits="objectBoundingBox" id="filter-2">
            <feMorphology radius="1" operator="dilate" in="SourceAlpha" result="shadowSpreadOuter1"></feMorphology>
            <feOffset dx="0" dy="0" in="shadowSpreadOuter1" result="shadowOffsetOuter1"></feOffset>
            <feGaussianBlur stdDeviation="2" in="shadowOffsetOuter1" result="shadowBlurOuter1"></feGaussianBlur>
            <feComposite in="shadowBlurOuter1" in2="SourceAlpha" operator="out" result="shadowBlurOuter1"></feComposite>
            <feColorMatrix values="0 0 0 0 0.294117647   0 0 0 0 0.564705882   0 0 0 0 0.870588235  0 0 0 0.25 0" type="matrix" in="shadowBlurOuter1"></feColorMatrix>
        </filter>
    </defs>
    <g id="基础内容" stroke="none" stroke-width="1" fill="none" fill-rule="evenodd">
        <g id="流程图内图标" transform="translate(-62.000000, -37.000000)">
            <g id="31_Member" transform="translate(67.000000, 42.000000)">
                <g id="Rectangle-92">
                    <use fill="black" fill-opacity="1" filter="url(#filter-2)" xlink:href="#path-1"></use>
                    <rect stroke="#FFFFFF" stroke-width="1" fill="#4B90DE" fill-rule="evenodd" x="-0.5" y="-0.5" width="35" height="35" rx="17.5"></rect>
                </g>
                <path d="M20.9090909,12.8827942 C21.6363636,13.6878525 22,14.5823617 22,15.6557728 L22,20.4861225 C22,20.5755735 22,20.6650244 21.9090909,20.8439262 C21.9090909,20.9333772 21.8181818,21.0228281 21.6363636,21.2017299 C21.4545455,21.3806318 21.1818182,21.4700827 20.9090909,21.5595336 C20.5454545,21.4700827 20.2727273,21.3806318 20.0909091,21.2017299 C19.8181818,20.9333772 19.7272727,20.7544753 19.7272727,20.4861225 L19.7272727,26.9265889 C19.7272727,27.1949417 19.6363636,27.4632945 19.3636364,27.6421963 C19.1818182,27.9105491 18.9090909,28 18.6363636,28 C18.4545455,28 18.2727273,28 18.1818182,27.9105491 C18,27.8210982 17.9090909,27.7316472 17.8181818,27.6421963 C17.6363636,27.4632945 17.4545455,27.1949417 17.4545455,26.9265889 C17.4545455,27.1949417 17.3636364,27.4632945 17.0909091,27.6421963 C17,27.7316472 16.9090909,27.8210982 16.8181818,27.9105491 C16.6363636,28 16.4545455,28 16.3636364,28 C16,28 15.8181818,27.9105491 15.5454545,27.6421963 C15.3636364,27.4632945 15.1818182,27.1949417 15.1818182,26.9265889 L15.1818182,20.4861225 C15.1818182,20.7544753 15.0909091,20.9333772 14.9090909,21.2017299 C14.6363636,21.3806318 14.3636364,21.4700827 14.0909091,21.5595336 C13.7272727,21.4700827 13.5454545,21.3806318 13.2727273,21.2017299 C13.0909091,20.9333772 13,20.7544753 13,20.4861225 L13,15.6557728 C13,14.5823617 13.3636364,13.6878525 14.0909091,12.8827942 C14.0909091,12.7933433 14.1818182,12.7933433 14.2727273,12.7933433 C15.0909091,11.898834 16.1818182,11.4515794 17.4545455,11.4515794 C18.7272727,11.4515794 19.8181818,11.898834 20.6363636,12.7933433 C20.7272727,12.7933433 20.8181818,12.7933433 20.9090909,12.8827942 Z M14.3285771,7.70047865 C14.237668,6.89542035 14.5103952,6.26926389 15.0558498,5.73255836 C15.6013043,5.19585283 16.237668,4.92750006 17.0558498,5.01695098 C17.7831225,4.92750006 18.4194861,5.19585283 18.9649407,5.73255836 C19.4194861,6.26926389 19.6922134,6.89542035 19.7831225,7.70047865 C19.6922134,8.41608602 19.4194861,9.04224248 18.9649407,9.57894801 C18.4194861,10.0262026 17.7831225,10.3840063 17.0558498,10.3840063 C16.237668,10.3840063 15.6013043,10.0262026 15.0558498,9.57894801 C14.5103952,9.04224248 14.237668,8.41608602 14.3285771,7.70047865 Z" id="Combined-Shape" fill="#FFFFFF" fill-rule="nonzero"></path>
            </g>
        </g>
    </g>
</svg>