<?xml version="1.0" encoding="UTF-8"?>
<svg width="44px" height="44px" viewBox="0 0 44 44" version="1.1" xmlns="http://www.w3.org/2000/svg" xmlns:xlink="http://www.w3.org/1999/xlink">
    <!-- Generator: Sketch 52.2 (67145) - http://www.bohemiancoding.com/sketch -->
    <title>ic_vj_tag</title>
    <desc>Created with Sketch.</desc>
    <defs>
        <path d="M17,33.875 C26.3198052,33.875 33.875,26.3198052 33.875,17 C33.875,7.68019485 26.3198052,0.125 17,0.125 C7.68019485,0.125 0.125,7.68019485 0.125,17 C0.125,26.3198052 7.68019485,33.875 17,33.875 Z" id="path-1"></path>
        <filter x="-20.7%" y="-20.7%" width="141.5%" height="141.5%" filterUnits="objectBoundingBox" id="filter-2">
            <feMorphology radius="1" operator="dilate" in="SourceAlpha" result="shadowSpreadOuter1"></feMorphology>
            <feOffset dx="0" dy="0" in="shadowSpreadOuter1" result="shadowOffsetOuter1"></feOffset>
            <feGaussianBlur stdDeviation="2" in="shadowOffsetOuter1" result="shadowBlurOuter1"></feGaussianBlur>
            <feComposite in="shadowBlurOuter1" in2="SourceAlpha" operator="out" result="shadowBlurOuter1"></feComposite>
            <feColorMatrix values="0 0 0 0 0.294117647   0 0 0 0 0.564705882   0 0 0 0 0.870588235  0 0 0 0.25 0" type="matrix" in="shadowBlurOuter1"></feColorMatrix>
        </filter>
    </defs>
    <g id="基础内容" stroke="none" stroke-width="1" fill="none" fill-rule="evenodd">
        <g id="流程图内图标" transform="translate(-178.000000, -282.000000)" fill-rule="nonzero">
            <g id="ic_vj_tag" transform="translate(183.000000, 287.000000)">
                <g id="Oval">
                    <use fill="black" fill-opacity="1" filter="url(#filter-2)" xlink:href="#path-1"></use>
                    <path stroke="#FFFFFF" stroke-width="1" d="M17,34.375 C7.40405247,34.375 -0.375,26.5959475 -0.375,17 C-0.375,7.40405247 7.40405247,-0.375 17,-0.375 C26.5959475,-0.375 34.375,7.40405247 34.375,17 C34.375,26.5959475 26.5959475,34.375 17,34.375 Z" fill="#FFFFFF" fill-rule="evenodd"></path>
                </g>
                <path d="M17,31.875 C25.2152357,31.875 31.875,25.2152357 31.875,17 C31.875,8.78476435 25.2152357,2.125 17,2.125 C8.78476435,2.125 2.125,8.78476435 2.125,17 C2.125,25.2152357 8.78476435,31.875 17,31.875 Z M17,34 C7.61115925,34 0,26.3888407 0,17 C0,7.61115925 7.61115925,0 17,0 C26.3888407,0 34,7.61115925 34,17 C34,26.3888407 26.3888407,34 17,34 Z" id="Oval" fill="#48C0FB"></path>
                <path d="M25.4942138,8.50526022 L25.498948,17.018924 L16.5933979,25.925 L8.075,17.40555 L16.98055,8.5 L25.4942138,8.50526022 Z M22.7720507,12.8607212 L22.7720507,11.7718559 L22.227618,11.2279493 L21.1387528,11.2279493 L20.5943202,11.7718559 L20.5943202,12.8607212 L21.1387528,13.4051538 L22.227618,13.4051538 L22.7720507,12.8607212 Z" id="Shape" fill="#6EA4D9"></path>
            </g>
        </g>
    </g>
</svg>