<?xml version="1.0" encoding="UTF-8"?>
<svg width="55px" height="54px" viewBox="0 0 55 54" version="1.1" xmlns="http://www.w3.org/2000/svg" xmlns:xlink="http://www.w3.org/1999/xlink">
    <!-- Generator: Sketch 52.2 (67145) - http://www.bohemiancoding.com/sketch -->
    <title>unused_ic_vj_node copy 3</title>
    <desc>Created with Sketch.</desc>
    <defs>
        <path d="M17,33.875 C26.3198052,33.875 33.875,26.3198052 33.875,17 C33.875,7.68019485 26.3198052,0.125 17,0.125 C7.68019485,0.125 0.125,7.68019485 0.125,17 C0.125,26.3198052 7.68019485,33.875 17,33.875 Z" id="path-1"></path>
        <filter x="-47.4%" y="-47.4%" width="194.8%" height="194.8%" filterUnits="objectBoundingBox" id="filter-2">
            <feMorphology radius="1" operator="dilate" in="SourceAlpha" result="shadowSpreadOuter1"></feMorphology>
            <feOffset dx="0" dy="0" in="shadowSpreadOuter1" result="shadowOffsetOuter1"></feOffset>
            <feGaussianBlur stdDeviation="5" in="shadowOffsetOuter1" result="shadowBlurOuter1"></feGaussianBlur>
            <feComposite in="shadowBlurOuter1" in2="SourceAlpha" operator="out" result="shadowBlurOuter1"></feComposite>
            <feColorMatrix values="0 0 0 0 0.960784314   0 0 0 0 0.650980392   0 0 0 0 0.137254902  0 0 0 0.25 0" type="matrix" in="shadowBlurOuter1"></feColorMatrix>
        </filter>
    </defs>
    <g id="基础内容" stroke="none" stroke-width="1" fill="none" fill-rule="evenodd">
        <g id="流程图内图标" transform="translate(-347.000000, -179.000000)">
            <g id="unused_ic_vj_node-copy-3" transform="translate(357.000000, 189.000000)">
                <g id="Oval" fill-rule="nonzero">
                    <use fill="black" fill-opacity="1" filter="url(#filter-2)" xlink:href="#path-1"></use>
                    <path stroke="#FFFFFF" stroke-width="1" d="M17,34.375 C7.40405247,34.375 -0.375,26.5959475 -0.375,17 C-0.375,7.40405247 7.40405247,-0.375 17,-0.375 C26.5959475,-0.375 34.375,7.40405247 34.375,17 C34.375,26.5959475 26.5959475,34.375 17,34.375 Z" fill="#FFFFFF" fill-rule="evenodd"></path>
                </g>
                <path d="M17,31.875 C25.2152357,31.875 31.875,25.2152357 31.875,17 C31.875,8.78476435 25.2152357,2.125 17,2.125 C8.78476435,2.125 2.125,8.78476435 2.125,17 C2.125,25.2152357 8.78476435,31.875 17,31.875 Z M17,34 C7.61115925,34 0,26.3888407 0,17 C0,7.61115925 7.61115925,0 17,0 C26.3888407,0 34,7.61115925 34,17 C34,26.3888407 26.3888407,34 17,34 Z" id="Oval" fill="#F5A623" fill-rule="nonzero"></path>
                <path d="M26.7974851,20.756941 L26.7974851,21.0227567 C26.7974851,21.0816828 26.7974851,21.1406089 26.738559,21.2584611 C26.738559,21.3173872 26.6796329,21.3763133 26.5617807,21.4941655 C26.4439285,21.6120177 26.2671502,21.6709438 26.0903718,21.7298699 C25.8546674,21.6709438 25.6778891,21.6120177 25.5600369,21.4941655 C25.3864764,21.3206049 25.3265168,21.2038449 25.3243915,21.0323521 L25.3243915,24.9818835 C25.3243915,24.9851013 25.3243719,24.9883191 25.3243325,24.9915365 L25.3243325,25.2654359 C25.3243325,25.4422142 25.2654064,25.6189925 25.0886281,25.7368447 C24.9707759,25.913623 24.7939976,25.9725491 24.6172193,25.9725491 C24.4993671,25.9725491 24.3815149,25.9725491 24.3225888,25.913623 C24.2047366,25.8546969 24.1458105,25.7957708 24.0868844,25.7368447 C23.9690322,25.6189925 23.85118,25.4422142 23.85118,25.2654359 C23.85118,25.4422142 23.7922539,25.6189925 23.6154756,25.7368447 C23.5565495,25.7957708 23.4976234,25.8546969 23.4386973,25.913623 C23.3208451,25.9725491 23.2029929,25.9725491 23.1440668,25.9725491 C22.9083624,25.9725491 22.7905102,25.913623 22.6137319,25.7368447 C22.4958797,25.6189925 22.3780275,25.4422142 22.3780275,25.2654359 L22.3780275,21.0227567 C22.3780275,21.199535 22.3191014,21.3173872 22.2012492,21.4941655 C22.0244709,21.6120177 21.8476926,21.6709438 21.6709143,21.7298699 C21.4352099,21.6709438 21.3173577,21.6120177 21.1405794,21.4941655 C21.0227272,21.3173872 20.9638011,21.199535 20.9638011,21.0227567 L20.9638011,17.8407472 C20.9638011,17.8342922 20.9638207,17.827847 20.96386,17.8214116 L20.96386,17.5571948 C20.96386,16.8500816 21.1995644,16.2608206 21.6709732,15.7304857 C21.6709732,15.6715596 21.7298993,15.6715596 21.7888254,15.6715596 C22.3191603,15.0822986 23.0262735,14.7876681 23.8512389,14.7876681 C24.6762044,14.7876681 25.3833176,15.0822986 25.9136525,15.6715596 C25.9725786,15.6715596 26.0315047,15.6715596 26.0904308,15.7304857 C26.5618396,16.2608206 26.797544,16.8500816 26.797544,17.5571948 L26.797544,20.7392043 C26.797544,20.7450969 26.797544,20.7509895 26.7974851,20.756941 Z M23.910224,10.9574716 C24.3816328,10.8985455 24.7941155,11.0753238 25.1476721,11.4288804 C25.4423026,11.782437 25.6190809,12.1949197 25.6190809,12.7252546 C25.6190809,13.1966634 25.4423026,13.6091461 25.1476721,13.9627027 C24.7941155,14.3162593 24.3816328,14.4930376 23.910224,14.4930376 C23.3798891,14.4930376 22.9674064,14.3162593 22.6138498,13.9627027 C22.2602932,13.6680722 22.0835149,13.2555895 22.142441,12.7252546 C22.0835149,12.1949197 22.2602932,11.782437 22.6138498,11.4288804 C22.9674064,11.0753238 23.3798891,10.8985455 23.910224,10.9574716 Z M22.2011313,8.4827521 C22.4957619,8.83630871 22.6725402,9.24879141 22.7314663,9.77912632 C22.7314663,10.2505351 22.554688,10.6630178 22.2011313,11.0165744 C21.8475747,11.3112049 21.435092,11.5469093 20.9636832,11.5469093 C20.4333483,11.5469093 20.0208656,11.3112049 19.667309,11.0165744 C19.3137524,10.6630178 19.1369741,10.2505351 19.1369741,9.77912632 C19.1369741,9.24879141 19.3137524,8.83630871 19.667309,8.4827521 C20.0208656,8.1291955 20.4333483,8.0113433 20.9636832,8.0113433 C21.435092,8.0113433 21.8475747,8.1291955 22.2011313,8.4827521 Z M20.2566879,21.2584611 C20.2566879,21.3173872 20.1977618,21.3763133 20.0799096,21.4941655 C19.9620574,21.6120177 19.7852791,21.6709438 19.6085008,21.7298699 C19.3727964,21.6709438 19.1960181,21.6120177 19.0781659,21.4941655 C18.9013876,21.3173872 18.8424615,21.199535 18.8424615,21.0227567 L18.8424615,25.2654359 C18.8424615,25.4422142 18.7835354,25.6189925 18.6067571,25.7368447 C18.4889049,25.913623 18.3121266,25.9725491 18.1353483,25.9725491 C18.017496,25.9725491 17.8996438,25.9725491 17.8407177,25.913623 C17.7228655,25.8546969 17.6639394,25.7957708 17.6050133,25.7368447 C17.4871611,25.6189925 17.3693089,25.4422142 17.3693089,25.2654359 C17.3693089,25.4422142 17.3103828,25.6189925 17.1336045,25.7368447 C17.0746784,25.7957708 17.0157523,25.8546969 16.9568262,25.913623 C16.838974,25.9725491 16.7211218,25.9725491 16.6621957,25.9725491 C16.4264913,25.9725491 16.3086391,25.913623 16.1318608,25.7368447 C16.0140086,25.6189925 15.8961564,25.4422142 15.8961564,25.2654359 L15.8961564,21.0227567 C15.8961564,21.199535 15.8372303,21.3173872 15.7193781,21.4941655 C15.5425998,21.6120177 15.3658215,21.6709438 15.1890432,21.7298699 C14.9533388,21.6709438 14.8354866,21.6120177 14.6587083,21.4941655 C14.5408561,21.3173872 14.48193,21.199535 14.48193,21.0227567 L14.48193,17.8407472 C14.48193,17.133634 14.7176344,16.544373 15.1890432,16.0140381 C15.1890432,15.955112 15.2479693,15.955112 15.3068954,15.955112 C15.8372303,15.365851 16.5443435,15.0712205 17.3693089,15.0712205 C18.1942744,15.0712205 18.9013876,15.365851 19.4317225,15.955112 C19.4906486,15.955112 19.5495747,15.955112 19.6085008,16.0140381 C20.0799096,16.544373 20.315614,17.133634 20.315614,17.8407472 L20.315614,21.0227567 C20.315614,21.0816828 20.315614,21.1406089 20.2566879,21.2584611 Z M17.4283529,10.9574716 C17.8997617,10.8985455 18.3122444,11.0753238 18.665801,11.4288804 C18.9604315,11.782437 19.1372098,12.1949197 19.1372098,12.7252546 C19.1372098,13.1966634 18.9604315,13.6091461 18.665801,13.9627027 C18.3122444,14.3162593 17.8997617,14.4930376 17.4283529,14.4930376 C16.898018,14.4930376 16.4855353,14.3162593 16.1319787,13.9627027 C15.7784221,13.6680722 15.6016438,13.2555895 15.6605699,12.7252546 C15.6016438,12.1949197 15.7784221,11.782437 16.1319787,11.4288804 C16.4855353,11.0753238 16.898018,10.8985455 17.4283529,10.9574716 Z M13.1265708,15.7305446 C13.5979796,16.2608795 13.833684,16.8501406 13.833684,17.5572538 L13.833684,20.7392632 C13.833684,20.7981893 13.833684,20.8571154 13.7747579,20.9749676 C13.7747579,21.0338937 13.7158318,21.0928198 13.5979796,21.210672 C13.4801274,21.3285242 13.3033491,21.3874503 13.1265708,21.4463764 C12.8908664,21.3874503 12.7140881,21.3285242 12.5962359,21.210672 C12.4194576,21.0338937 12.3605315,20.9160415 12.3605315,20.7392632 L12.3605315,24.9819425 C12.3605315,25.1587208 12.3016054,25.3354991 12.1248271,25.4533513 C12.0069748,25.6301296 11.8301965,25.6890557 11.6534182,25.6890557 C11.535566,25.6890557 11.4177138,25.6890557 11.3587877,25.6301296 C11.2409355,25.5712035 11.1820094,25.5122774 11.1230833,25.4533513 C11.0052311,25.3354991 10.8873789,25.1587208 10.8873789,24.9819425 C10.8873789,25.1587208 10.8284528,25.3354991 10.6516745,25.4533513 C10.5927484,25.5122774 10.5338223,25.5712035 10.4748962,25.6301296 C10.357044,25.6890557 10.2391918,25.6890557 10.1802657,25.6890557 C9.94456132,25.6890557 9.82670912,25.6301296 9.64993082,25.4533513 C9.53207862,25.3354991 9.41422642,25.1587208 9.41422642,24.9819425 L9.41422642,20.7392632 C9.41422642,20.9160415 9.35530032,21.0338937 9.23744812,21.210672 C9.06066981,21.3285242 8.88389151,21.3874503 8.70711321,21.4463764 C8.47140881,21.3874503 8.3535566,21.3285242 8.1767783,21.210672 C8.0589261,21.0338937 8,20.9160415 8,20.7392632 L8,17.5572538 C8,16.8501406 8.2357044,16.2608795 8.70711321,15.7305446 C8.70711321,15.6716185 8.76603931,15.6716185 8.82496541,15.6716185 C9.35530032,15.0823575 10.0624135,14.787727 10.8873789,14.787727 C11.7123443,14.787727 12.4194576,15.0823575 12.9497925,15.6716185 C13.0087186,15.6716185 13.0676447,15.6716185 13.1265708,15.7305446 Z M9.17869879,12.7252546 C9.11977269,12.1949197 9.29655099,11.782437 9.6501076,11.4288804 C10.0036642,11.0753238 10.4161469,10.8985455 10.9464818,10.9574716 C11.4178906,10.8985455 11.8303733,11.0753238 12.1839299,11.4288804 C12.4785604,11.782437 12.6553387,12.1949197 12.7142648,12.7252546 C12.6553387,13.1966634 12.4785604,13.6091461 12.1839299,13.9627027 C11.8303733,14.2573332 11.4178906,14.4930376 10.9464818,14.4930376 C10.4161469,14.4930376 10.0036642,14.2573332 9.6501076,13.9627027 C9.29655099,13.6091461 9.11977269,13.1966634 9.17869879,12.7252546 Z M15.1299993,10.9574716 C14.7764427,11.3110282 14.36396,11.4878065 13.8925511,11.4878065 C13.3622162,11.4878065 12.9497335,11.3110282 12.5961769,10.9574716 C12.2426203,10.6628411 12.065842,10.2503583 12.1247681,9.77894954 L12.1247681,9.72002344 C12.065842,9.18968853 12.2426203,8.77720583 12.5961769,8.48257532 C12.9497335,8.12901872 13.3622162,7.95224042 13.8925511,8.01116652 C14.36396,7.95224042 14.7764427,8.12901872 15.1299993,8.48257532 C15.4246298,8.83613193 15.6014081,9.24861463 15.6014081,9.77894954 C15.6014081,10.2503583 15.4246298,10.6628411 15.1299993,10.9574716 Z" id="Combined-Shape" fill="#F5A623"></path>
            </g>
        </g>
    </g>
</svg>