<?xml version="1.0" encoding="UTF-8"?>
<svg width="44px" height="44px" viewBox="0 0 44 44" version="1.1" xmlns="http://www.w3.org/2000/svg" xmlns:xlink="http://www.w3.org/1999/xlink">
    <!-- Generator: Sketch 52.2 (67145) - http://www.bohemiancoding.com/sketch -->
    <title>37_DepartmentCurrent</title>
    <desc>Created with Sketch.</desc>
    <defs>
        <circle id="path-1" cx="17" cy="17" r="17"></circle>
        <filter x="-20.6%" y="-20.6%" width="141.2%" height="141.2%" filterUnits="objectBoundingBox" id="filter-2">
            <feMorphology radius="1" operator="dilate" in="SourceAlpha" result="shadowSpreadOuter1"></feMorphology>
            <feOffset dx="0" dy="0" in="shadowSpreadOuter1" result="shadowOffsetOuter1"></feOffset>
            <feGaussianBlur stdDeviation="2" in="shadowOffsetOuter1" result="shadowBlurOuter1"></feGaussianBlur>
            <feComposite in="shadowBlurOuter1" in2="SourceAlpha" operator="out" result="shadowBlurOuter1"></feComposite>
            <feColorMatrix values="0 0 0 0 0.960784314   0 0 0 0 0.650980392   0 0 0 0 0.137254902  0 0 0 0.25 0" type="matrix" in="shadowBlurOuter1"></feColorMatrix>
        </filter>
    </defs>
    <g id="基础内容" stroke="none" stroke-width="1" fill="none" fill-rule="evenodd">
        <g id="流程图内图标" transform="translate(-120.000000, -184.000000)">
            <g id="37_DepartmentCurrent" transform="translate(125.000000, 189.000000)">
                <g id="Oval">
                    <use fill="black" fill-opacity="1" filter="url(#filter-2)" xlink:href="#path-1"></use>
                    <circle stroke="#FFFFFF" stroke-width="1" fill="#F5A623" fill-rule="evenodd" cx="17" cy="17" r="17.5"></circle>
                </g>
                <path d="M26.3775056,20.8769483 L26.3775056,21.142764 C26.3775056,21.2016901 26.3775056,21.2606162 26.3185795,21.3784684 C26.3185795,21.4373945 26.2596534,21.4963206 26.1418012,21.6141728 C26.023949,21.732025 25.8471707,21.7909511 25.6703924,21.8498772 C25.434688,21.7909511 25.2579097,21.732025 25.1400575,21.6141728 C24.9664969,21.4406123 24.9065373,21.3238522 24.904412,21.1523594 L24.904412,25.1018908 C24.904412,25.1051086 24.9043925,25.1083264 24.904353,25.1115438 L24.904353,25.3854432 C24.904353,25.5622215 24.8454269,25.7389998 24.6686486,25.856852 C24.5507964,26.0336303 24.3740181,26.0925565 24.1972398,26.0925565 C24.0793876,26.0925565 23.9615354,26.0925565 23.9026093,26.0336303 C23.7847571,25.9747042 23.725831,25.9157781 23.6669049,25.856852 C23.5490527,25.7389998 23.4312005,25.5622215 23.4312005,25.3854432 C23.4312005,25.5622215 23.3722744,25.7389998 23.1954961,25.856852 C23.13657,25.9157781 23.0776439,25.9747042 23.0187178,26.0336303 C22.9008656,26.0925565 22.7830134,26.0925565 22.7240873,26.0925565 C22.4883829,26.0925565 22.3705307,26.0336303 22.1937524,25.856852 C22.0759002,25.7389998 21.958048,25.5622215 21.958048,25.3854432 L21.958048,21.142764 C21.958048,21.3195423 21.8991219,21.4373945 21.7812697,21.6141728 C21.6044914,21.732025 21.4277131,21.7909511 21.2509348,21.8498772 C21.0152304,21.7909511 20.8973782,21.732025 20.7205999,21.6141728 C20.6027477,21.4373945 20.5438216,21.3195423 20.5438216,21.142764 L20.5438216,17.9607545 C20.5438216,17.9542995 20.5438412,17.9478543 20.5438805,17.9414189 L20.5438805,17.6772022 C20.5438805,16.9700889 20.7795849,16.3808279 21.2509937,15.850493 C21.2509937,15.7915669 21.3099198,15.7915669 21.3688459,15.7915669 C21.8991808,15.2023059 22.606294,14.9076754 23.4312595,14.9076754 C24.2562249,14.9076754 24.9633381,15.2023059 25.493673,15.7915669 C25.5525991,15.7915669 25.6115252,15.7915669 25.6704513,15.850493 C26.1418601,16.3808279 26.3775645,16.9700889 26.3775645,17.6772022 L26.3775645,20.8592116 C26.3775645,20.8651042 26.3775645,20.8709968 26.3775056,20.8769483 Z M23.4902445,11.0774789 C23.9616533,11.0185528 24.374136,11.1953311 24.7276926,11.5488877 C25.0223231,11.9024443 25.1991014,12.314927 25.1991014,12.8452619 C25.1991014,13.3166707 25.0223231,13.7291534 24.7276926,14.08271 C24.374136,14.4362666 23.9616533,14.6130449 23.4902445,14.6130449 C22.9599096,14.6130449 22.5474269,14.4362666 22.1938703,14.08271 C21.8403137,13.7880795 21.6635354,13.3755968 21.7224615,12.8452619 C21.6635354,12.314927 21.8403137,11.9024443 22.1938703,11.5488877 C22.5474269,11.1953311 22.9599096,11.0185528 23.4902445,11.0774789 Z M21.7811519,8.60275942 C22.0757824,8.95631602 22.2525607,9.36879873 22.3114868,9.89913364 C22.3114868,10.3705424 22.1347085,10.7830251 21.7811519,11.1365818 C21.4275953,11.4312123 21.0151125,11.6669167 20.5437037,11.6669167 C20.0133688,11.6669167 19.6008861,11.4312123 19.2473295,11.1365818 C18.8937729,10.7830251 18.7169946,10.3705424 18.7169946,9.89913364 C18.7169946,9.36879873 18.8937729,8.95631602 19.2473295,8.60275942 C19.6008861,8.24920281 20.0133688,8.13135061 20.5437037,8.13135061 C21.0151125,8.13135061 21.4275953,8.24920281 21.7811519,8.60275942 Z M19.8367084,21.3784684 C19.8367084,21.4373945 19.7777823,21.4963206 19.6599301,21.6141728 C19.5420779,21.732025 19.3652996,21.7909511 19.1885213,21.8498772 C18.9528169,21.7909511 18.7760386,21.732025 18.6581864,21.6141728 C18.4814081,21.4373945 18.422482,21.3195423 18.422482,21.142764 L18.422482,25.3854432 C18.422482,25.5622215 18.3635559,25.7389998 18.1867776,25.856852 C18.0689254,26.0336303 17.8921471,26.0925565 17.7153688,26.0925565 C17.5975166,26.0925565 17.4796644,26.0925565 17.4207383,26.0336303 C17.3028861,25.9747042 17.24396,25.9157781 17.1850339,25.856852 C17.0671817,25.7389998 16.9493294,25.5622215 16.9493294,25.3854432 C16.9493294,25.5622215 16.8904033,25.7389998 16.713625,25.856852 C16.6546989,25.9157781 16.5957728,25.9747042 16.5368467,26.0336303 C16.4189945,26.0925565 16.3011423,26.0925565 16.2422162,26.0925565 C16.0065118,26.0925565 15.8886596,26.0336303 15.7118813,25.856852 C15.5940291,25.7389998 15.4761769,25.5622215 15.4761769,25.3854432 L15.4761769,21.142764 C15.4761769,21.3195423 15.4172508,21.4373945 15.2993986,21.6141728 C15.1226203,21.732025 14.945842,21.7909511 14.7690637,21.8498772 C14.5333593,21.7909511 14.4155071,21.732025 14.2387288,21.6141728 C14.1208766,21.4373945 14.0619505,21.3195423 14.0619505,21.142764 L14.0619505,17.9607545 C14.0619505,17.2536413 14.2976549,16.6643803 14.7690637,16.1340454 C14.7690637,16.0751193 14.8279898,16.0751193 14.8869159,16.0751193 C15.4172508,15.4858583 16.124364,15.1912278 16.9493294,15.1912278 C17.7742949,15.1912278 18.4814081,15.4858583 19.011743,16.0751193 C19.0706691,16.0751193 19.1295952,16.0751193 19.1885213,16.1340454 C19.6599301,16.6643803 19.8956345,17.2536413 19.8956345,17.9607545 L19.8956345,21.142764 C19.8956345,21.2016901 19.8956345,21.2606162 19.8367084,21.3784684 Z M17.0083734,11.0774789 C17.4797822,11.0185528 17.8922649,11.1953311 18.2458215,11.5488877 C18.540452,11.9024443 18.7172303,12.314927 18.7172303,12.8452619 C18.7172303,13.3166707 18.540452,13.7291534 18.2458215,14.08271 C17.8922649,14.4362666 17.4797822,14.6130449 17.0083734,14.6130449 C16.4780385,14.6130449 16.0655558,14.4362666 15.7119992,14.08271 C15.3584426,13.7880795 15.1816643,13.3755968 15.2405904,12.8452619 C15.1816643,12.314927 15.3584426,11.9024443 15.7119992,11.5488877 C16.0655558,11.1953311 16.4780385,11.0185528 17.0083734,11.0774789 Z M12.7065913,15.850552 C13.1780001,16.3808869 13.4137045,16.9701479 13.4137045,17.6772611 L13.4137045,20.8592705 C13.4137045,20.9181966 13.4137045,20.9771227 13.3547784,21.0949749 C13.3547784,21.153901 13.2958523,21.2128271 13.1780001,21.3306793 C13.0601479,21.4485315 12.8833696,21.5074576 12.7065913,21.5663837 C12.4708869,21.5074576 12.2941086,21.4485315 12.1762564,21.3306793 C11.9994781,21.153901 11.940552,21.0360488 11.940552,20.8592705 L11.940552,25.1019498 C11.940552,25.2787281 11.8816259,25.4555064 11.7048476,25.5733586 C11.5869954,25.7501369 11.4102171,25.809063 11.2334388,25.809063 C11.1155866,25.809063 10.9977343,25.809063 10.9388082,25.7501369 C10.820956,25.6912108 10.7620299,25.6322847 10.7031038,25.5733586 C10.5852516,25.4555064 10.4673994,25.2787281 10.4673994,25.1019498 C10.4673994,25.2787281 10.4084733,25.4555064 10.231695,25.5733586 C10.1727689,25.6322847 10.1138428,25.6912108 10.0549167,25.7501369 C9.93706454,25.809063 9.81921234,25.809063 9.76028623,25.809063 C9.52458183,25.809063 9.40672963,25.7501369 9.22995133,25.5733586 C9.11209913,25.4555064 8.99424693,25.2787281 8.99424693,25.1019498 L8.99424693,20.8592705 C8.99424693,21.0360488 8.93532082,21.153901 8.81746862,21.3306793 C8.64069032,21.4485315 8.46391202,21.5074576 8.28713372,21.5663837 C8.05142931,21.5074576 7.93357711,21.4485315 7.75679881,21.3306793 C7.63894661,21.153901 7.58002051,21.0360488 7.58002051,20.8592705 L7.58002051,17.6772611 C7.58002051,16.9701479 7.81572491,16.3808869 8.28713372,15.850552 C8.28713372,15.7916259 8.34605982,15.7916259 8.40498592,15.7916259 C8.93532082,15.2023648 9.64243403,14.9077343 10.4673994,14.9077343 C11.2923649,14.9077343 11.9994781,15.2023648 12.529813,15.7916259 C12.5887391,15.7916259 12.6476652,15.7916259 12.7065913,15.850552 Z M8.7587193,12.8452619 C8.6997932,12.314927 8.8765715,11.9024443 9.23012811,11.5488877 C9.58368471,11.1953311 9.99616742,11.0185528 10.5265023,11.0774789 C10.9979111,11.0185528 11.4103938,11.1953311 11.7639504,11.5488877 C12.0585809,11.9024443 12.2353592,12.314927 12.2942853,12.8452619 C12.2353592,13.3166707 12.0585809,13.7291534 11.7639504,14.08271 C11.4103938,14.3773405 10.9979111,14.6130449 10.5265023,14.6130449 C9.99616742,14.6130449 9.58368471,14.3773405 9.23012811,14.08271 C8.8765715,13.7291534 8.6997932,13.3166707 8.7587193,12.8452619 Z M14.7100198,11.0774789 C14.3564632,11.4310355 13.9439805,11.6078138 13.4725717,11.6078138 C12.9422367,11.6078138 12.529754,11.4310355 12.1761974,11.0774789 C11.8226408,10.7828484 11.6458625,10.3703657 11.7047886,9.89895686 L11.7047886,9.84003076 C11.6458625,9.30969585 11.8226408,8.89721314 12.1761974,8.60258264 C12.529754,8.24902604 12.9422367,8.07224773 13.4725717,8.13117383 C13.9439805,8.07224773 14.3564632,8.24902604 14.7100198,8.60258264 C15.0046503,8.95613925 15.1814286,9.36862195 15.1814286,9.89895686 C15.1814286,10.3703657 15.0046503,10.7828484 14.7100198,11.0774789 Z" id="Combined-Shape" fill="#FFFFFF"></path>
            </g>
        </g>
    </g>
</svg>