<?xml version="1.0" encoding="UTF-8"?>
<svg width="44px" height="44px" viewBox="0 0 44 44" version="1.1" xmlns="http://www.w3.org/2000/svg" xmlns:xlink="http://www.w3.org/1999/xlink">
    <!-- Generator: Sketch 52.2 (67145) - http://www.bohemiancoding.com/sketch -->
    <title>ic_vj_account copy</title>
    <desc>Created with Sketch.</desc>
    <defs>
        <path d="M17,33.875 C26.3198052,33.875 33.875,26.3198052 33.875,17 C33.875,7.68019485 26.3198052,0.125 17,0.125 C7.68019485,0.125 0.125,7.68019485 0.125,17 C0.125,26.3198052 7.68019485,33.875 17,33.875 Z" id="path-1"></path>
        <filter x="-20.7%" y="-20.7%" width="141.5%" height="141.5%" filterUnits="objectBoundingBox" id="filter-2">
            <feMorphology radius="1" operator="dilate" in="SourceAlpha" result="shadowSpreadOuter1"></feMorphology>
            <feOffset dx="0" dy="0" in="shadowSpreadOuter1" result="shadowOffsetOuter1"></feOffset>
            <feGaussianBlur stdDeviation="2" in="shadowOffsetOuter1" result="shadowBlurOuter1"></feGaussianBlur>
            <feComposite in="shadowBlurOuter1" in2="SourceAlpha" operator="out" result="shadowBlurOuter1"></feComposite>
            <feColorMatrix values="0 0 0 0 0.960784314   0 0 0 0 0.650980392   0 0 0 0 0.137254902  0 0 0 0.25 0" type="matrix" in="shadowBlurOuter1"></feColorMatrix>
        </filter>
    </defs>
    <g id="基础内容" stroke="none" stroke-width="1" fill="none" fill-rule="evenodd">
        <g id="流程图内图标" transform="translate(-236.000000, -86.000000)" fill-rule="nonzero">
            <g id="ic_vj_account-copy" transform="translate(241.000000, 91.000000)">
                <g id="Oval">
                    <use fill="black" fill-opacity="1" filter="url(#filter-2)" xlink:href="#path-1"></use>
                    <path stroke="#FFFFFF" stroke-width="1" d="M17,34.375 C7.40405247,34.375 -0.375,26.5959475 -0.375,17 C-0.375,7.40405247 7.40405247,-0.375 17,-0.375 C26.5959475,-0.375 34.375,7.40405247 34.375,17 C34.375,26.5959475 26.5959475,34.375 17,34.375 Z" fill="#FFFFFF" fill-rule="evenodd"></path>
                </g>
                <path d="M17,31.875 C25.2152357,31.875 31.875,25.2152357 31.875,17 C31.875,8.78476435 25.2152357,2.125 17,2.125 C8.78476435,2.125 2.125,8.78476435 2.125,17 C2.125,25.2152357 8.78476435,31.875 17,31.875 Z M17,34 C7.61115925,34 0,26.3888407 0,17 C0,7.61115925 7.61115925,0 17,0 C26.3888407,0 34,7.61115925 34,17 C34,26.3888407 26.3888407,34 17,34 Z" id="Oval" fill="#F5A623"></path>
                <path d="M8.5,8.74666159 C8.5,8.3931555 8.78280488,8.075 9.10096037,8.075 L17.3376525,8.075 C17.6911586,8.075 17.9739635,8.35780488 17.9739635,8.74666159 L17.9739635,25.396799 C17.9739635,25.7503051 17.6911586,26.0684606 17.3376525,26.0684606 L9.13631099,26.0684606 C8.78280488,26.0684606 8.5,25.7856557 8.5,25.396799 L8.5,8.74666159 Z M12.6006708,22.9222563 L12.6006708,20.0942075 L10.1261281,20.0942075 L10.1261281,22.9222563 L12.6006708,22.9222563 Z M12.6006708,18.3266769 L12.6006708,15.145122 L10.1261281,15.145122 L10.1261281,18.3266769 L12.6006708,18.3266769 Z M12.6006708,13.3775915 L12.6006708,10.5495427 L10.1261281,10.5495427 L10.1261281,13.3775915 L12.6006708,13.3775915 Z M16.842744,22.9222563 L16.842744,20.0942075 L14.3682013,20.0942075 L14.3682013,22.9222563 L16.842744,22.9222563 Z M16.842744,18.3266769 L16.842744,15.145122 L14.3682013,15.145122 L14.3682013,18.3266769 L16.842744,18.3266769 Z M16.842744,13.3775915 L16.842744,10.5495427 L14.3682013,10.5495427 L14.3682013,13.3775915 L16.842744,13.3775915 Z M18.4688721,16.3823934 C18.4688721,16.2763416 18.5749239,16.2056403 18.6809757,16.2056403 L25.9632014,16.2056403 C26.0692532,16.2056403 26.1399545,16.2763416 26.1399545,16.3823934 L26.1399545,25.8917075 C26.1399545,25.9977593 26.0692532,26.0684606 25.9632014,26.0684606 L24.2310215,26.0684606 C24.1249697,26.0684606 24.0542685,25.9977594 24.0542685,25.8917075 L24.0542685,21.6849849 C24.0542685,21.5789331 23.9835673,21.5082319 23.8775154,21.5082319 L20.7313111,21.5082319 C20.6252593,21.5082318 20.5545581,21.5789331 20.5545581,21.6849849 L20.5545581,25.8917075 C20.5545581,25.9977593 20.4838569,26.0684606 20.377805,26.0684606 L18.6456251,26.0684606 C18.5395733,26.0684606 18.4688721,25.9977594 18.4688721,25.8917075 L18.4688721,16.3823934 Z M26.0692532,15.3925763 L18.6456251,15.3925763 C18.5749239,15.3925763 18.5042227,15.3218751 18.5042227,15.2511739 L18.5042227,13.5896952 C18.5042227,13.518994 18.5749239,13.4482927 18.6456251,13.4482927 L26.0692532,13.4482927 C26.1399545,13.4482927 26.2106557,13.518994 26.2106557,13.5896952 L26.2106557,15.2511739 C26.2106557,15.3218751 26.1399545,15.3925763 26.0692532,15.3925763 Z" id="Shape" fill="#F5A623"></path>
            </g>
        </g>
    </g>
</svg>