<?xml version="1.0" encoding="UTF-8"?>
<svg width="44px" height="44px" viewBox="0 0 44 44" version="1.1" xmlns="http://www.w3.org/2000/svg" xmlns:xlink="http://www.w3.org/1999/xlink">
    <!-- Generator: Sketch 52.2 (67145) - http://www.bohemiancoding.com/sketch -->
    <title>315_FormFieldCurrent</title>
    <desc>Created with Sketch.</desc>
    <defs>
        <circle id="path-1" cx="17" cy="17" r="17"></circle>
        <filter x="-20.6%" y="-20.6%" width="141.2%" height="141.2%" filterUnits="objectBoundingBox" id="filter-2">
            <feMorphology radius="1" operator="dilate" in="SourceAlpha" result="shadowSpreadOuter1"></feMorphology>
            <feOffset dx="0" dy="0" in="shadowSpreadOuter1" result="shadowOffsetOuter1"></feOffset>
            <feGaussianBlur stdDeviation="2" in="shadowOffsetOuter1" result="shadowBlurOuter1"></feGaussianBlur>
            <feComposite in="shadowBlurOuter1" in2="SourceAlpha" operator="out" result="shadowBlurOuter1"></feComposite>
            <feColorMatrix values="0 0 0 0 0.960784314   0 0 0 0 0.650980392   0 0 0 0 0.137254902  0 0 0 0.25 0" type="matrix" in="shadowBlurOuter1"></feColorMatrix>
        </filter>
    </defs>
    <g id="基础内容" stroke="none" stroke-width="1" fill="none" fill-rule="evenodd">
        <g id="流程图内图标" transform="translate(-120.000000, -380.000000)">
            <g id="315_FormFieldCurrent" transform="translate(125.000000, 385.000000)">
                <g id="Oval">
                    <use fill="black" fill-opacity="1" filter="url(#filter-2)" xlink:href="#path-1"></use>
                    <circle stroke="#FFFFFF" stroke-width="1" fill="#F5A623" fill-rule="evenodd" cx="17" cy="17" r="17.5"></circle>
                </g>
                <path d="M20.495,23.47 L22.875,23.47 L22.875,24.065 L24.065,24.065 L24.065,25.85 L9.785,25.85 L9.785,24.065 L10.975,24.065 L10.975,23.47 L13.355,23.47 L13.355,21.685 L8,21.685 L8,8 L25.85,8 L25.85,21.685 L20.495,21.685 L20.495,23.47 Z M20.6735,20.495 L24.66,20.495 L24.66,9.19 L9.19,9.19 L9.19,20.495 L13.1765,20.495 C13.236,20.5545 13.2955,20.5545 13.355,20.5545 L20.495,20.5545 C20.5545,20.5545 20.614,20.5545 20.6735,20.495 Z M20.4948215,10.975 C21.0898215,10.975 21.5658215,11.213 21.9823215,11.6295 C22.3988215,11.9865 22.5773215,12.522 22.5773215,13.0575 C22.5773215,13.6525 22.3988215,14.1285 21.9823215,14.545 C21.5658215,14.9615 21.0898215,15.14 20.4948215,15.14 C19.9593215,15.14 19.5428215,14.9615 19.1263215,14.664 C19.1858215,14.6045 19.1858215,14.545 19.2453215,14.4855 C19.4833215,14.0095 19.6023215,13.593 19.6023215,13.0575 C19.6023215,12.5815 19.4833215,12.1055 19.2453215,11.689 C19.2453215,11.6295 19.1858215,11.57 19.1263215,11.5105 C19.5428215,11.1535 19.9593215,10.975 20.4948215,10.975 Z M14.7830595,11.5104405 C14.7235595,11.5699405 14.6640595,11.6294405 14.6640595,11.6889405 C14.3665595,12.1054405 14.2475595,12.5814405 14.2475595,13.0574405 C14.2475595,13.5929405 14.3665595,14.0094405 14.6640595,14.4854405 C14.7235595,14.5449405 14.7235595,14.6044405 14.7830595,14.6639405 C14.3665595,14.9614405 13.8905595,15.1399405 13.3550595,15.1399405 C12.8195595,15.1399405 12.2840595,14.9614405 11.9270595,14.5449405 C11.5105595,14.1284405 11.2725595,13.6524405 11.2725595,13.0574405 C11.2725595,12.5219405 11.5105595,11.9864405 11.9270595,11.6294405 C12.2840595,11.2129405 12.8195595,10.9749405 13.3550595,10.9749405 C13.8905595,10.9749405 14.3665595,11.1534405 14.7830595,11.5104405 Z M16.9248215,10.975 C17.5198215,10.975 17.9958215,11.213 18.4123215,11.6295 C18.8288215,11.9865 19.0073215,12.522 19.0073215,13.0575 C19.0073215,13.6525 18.8288215,14.1285 18.4123215,14.545 C17.9958215,14.9615 17.5198215,15.14 16.9248215,15.14 C16.3893215,15.14 15.8538215,14.9615 15.4968215,14.545 C15.0803215,14.1285 14.8423215,13.6525 14.8423215,13.0575 C14.8423215,12.522 15.0803215,11.9865 15.4968215,11.6295 C15.8538215,11.213 16.3893215,10.975 16.9248215,10.975 Z M14.4855595,15.913381 C14.3070595,16.091881 14.1285595,16.210881 13.9500595,16.389381 C13.8905595,16.448881 13.8905595,16.448881 13.8905595,16.508381 C13.8310595,16.567881 13.7715595,16.627381 13.7715595,16.686881 L13.7715595,16.627381 C13.1170595,17.341381 12.7600595,18.293381 12.7600595,19.364381 L12.7600595,19.959381 L9.7850595,19.959381 L9.7850595,19.364381 C9.7850595,18.412381 10.0825595,17.638881 10.6775595,16.984381 C10.6775595,16.924881 10.7370595,16.865381 10.7965595,16.805881 C11.4510595,16.091881 12.3435595,15.734881 13.3550595,15.734881 C13.7120595,15.734881 14.1285595,15.794381 14.4855595,15.913381 Z M14.3664405,16.805881 C15.0209405,16.091881 15.9134405,15.734881 16.9249405,15.734881 C17.8769405,15.734881 18.7099405,16.091881 19.4239405,16.805881 C19.4834405,16.865381 19.5429405,16.924881 19.6024405,16.984381 C20.1379405,17.638881 20.4354405,18.412381 20.4949405,19.364381 L20.4949405,19.959381 L13.3549405,19.959381 L13.3549405,19.364381 C13.3549405,18.412381 13.6524405,17.638881 14.2474405,16.984381 C14.2474405,16.924881 14.3069405,16.865381 14.3664405,16.805881 Z M19.3048215,15.9729405 C19.6618215,15.7944405 20.0783215,15.7349405 20.4948215,15.7349405 C21.4468215,15.7349405 22.2798215,16.0919405 22.9938215,16.8059405 C23.0533215,16.8654405 23.1128215,16.9249405 23.1723215,16.9844405 C23.7078215,17.6389405 24.0053215,18.4124405 24.0648215,19.3644405 L24.0648215,19.9594405 L21.0898215,19.9594405 L21.0898215,19.3644405 C21.0303215,18.2934405 20.7328215,17.3414405 20.0188215,16.6274405 L20.0188215,16.5679405 L19.8403215,16.3894405 C19.6618215,16.2109405 19.4833215,16.0919405 19.3048215,15.9729405 Z" id="Combined-Shape" fill="#FFFFFF"></path>
            </g>
        </g>
    </g>
</svg>