<?xml version="1.0" encoding="UTF-8"?>
<svg width="19px" height="15px" viewBox="0 0 19 15" version="1.1" xmlns="http://www.w3.org/2000/svg" xmlns:xlink="http://www.w3.org/1999/xlink">
    <!-- Generator: Sketch 52.2 (67145) - http://www.bohemiancoding.com/sketch -->
    <title>子流程 2</title>
    <desc>Created with Sketch.</desc>
    <g id="基础内容" stroke="none" stroke-width="1" fill="none" fill-rule="evenodd">
        <g id="流程图内图标" transform="translate(-401.000000, -69.000000)" fill="#D0021B">
            <g id="子流程-2" transform="translate(402.000000, 69.000000)">
                <path d="M2.92427119,5.29443834 L-0.353538652,5.29443836 L-0.353538652,2.91280522 L2.92407983,2.91280521 L2.92407709,2.87873059 C3.17254298,2.87873059 3.41414773,2.8901032 3.64877761,2.91280521 L12.9054908,2.91280519 L11.8864032,0.435696046 C11.8520549,0.352620446 11.8798286,0.257964459 11.9538316,0.204212582 C12.0280417,0.150063096 12.1306726,0.150485556 12.2044685,0.205032653 L17.2727281,3.94636705 C17.3234094,3.98421454 17.3535387,4.04184311 17.3535387,4.10372114 C17.3535387,4.16540036 17.3234094,4.22342654 17.2727281,4.26107522 L12.2044685,8.00221081 C12.1671435,8.02969559 12.1230368,8.04311492 12.0783088,8.04311492 C12.0346163,8.04311492 11.9909496,8.0300932 11.9538316,8.00342849 C11.8796216,7.94967662 11.8520549,7.85482182 11.8864032,7.77154742 L12.9054908,5.29443828 L7.6819727,5.29443831 C8.74226717,6.95042366 8.71966735,8.84507346 8.6993348,8.94021948 C8.713773,9.11449793 8.72050752,9.24024346 8.72050752,9.24024346 L8.72416056,10.5519522 L11.2012697,9.53286457 C11.2845441,9.49851621 11.3793989,9.5260829 11.4331508,9.60029296 C11.4598155,9.63741093 11.4728372,9.68107761 11.4728372,9.72477017 C11.4728372,9.7694981 11.4594179,9.81360481 11.4319331,9.85092986 L7.6907975,14.9191895 C7.65314882,14.9698708 7.59512264,15 7.53344342,15 C7.47156539,15 7.41393682,14.9698708 7.37608933,14.9191895 L3.63475494,9.85092986 C3.58020784,9.77713395 3.57978538,9.67450302 3.63393486,9.60029296 C3.68768674,9.52628997 3.78234273,9.49851621 3.86541833,9.53286457 L6.34252747,10.5519522 L6.34252747,8.77417221 C6.32379011,8.38761727 6.19777265,7.11706447 5.38468543,6.25403282 C4.81366803,5.64779852 4.00893062,5.35305491 2.9242759,5.35305491 L2.92427119,5.29443834 Z" id="子流程"></path>
            </g>
        </g>
    </g>
</svg>