<?xml version="1.0" encoding="UTF-8"?>
<svg width="16px" height="16px" viewBox="0 0 16 16" version="1.1" xmlns="http://www.w3.org/2000/svg" xmlns:xlink="http://www.w3.org/1999/xlink">
    <!-- Generator: Sketch 52.2 (67145) - http://www.bohemiancoding.com/sketch -->
    <title>已读</title>
    <desc>Created with Sketch.</desc>
    <g id="基础内容" stroke="none" stroke-width="1" fill="none" fill-rule="evenodd">
        <g id="流程图内图标" transform="translate(-353.000000, -41.000000)">
            <g id="已读" transform="translate(353.000000, 41.000000)">
                <circle id="Oval-2" fill="#FFFFFF" cx="8" cy="8" r="8"></circle>
                <path d="M15,8 C15,6 14.299,4.399 12.898,3 C11.5,1.7 9.898,1 8,1 C6,1 4.4,1.7 3,3 C1.699,4.399 1,6 1,8 C1,9.899 1.699,11.5 3,12.899 C4.4,14.299 6,15 8,15 C9.898,15 11.5,14.3 12.898,12.899 C14.299,11.5 15,9.9 15,8 M12.199,6.9 C12.5,7.201 12.699,7.6 13,8.001 C12.699,8.4 12.5,8.701 12.199,9.101 C11,10.301 9.599,11.001 8,11.001 C6.301,11.001 4.9,10.301 3.699,9.101 C3.5,8.702 3.199,8.401 3,8.001 C3.199,7.601 3.5,7.201 3.699,6.9 C4.9,5.6 6.301,5.001 8,5.001 C9.6,5 11,5.6 12.199,6.9 Z M6.5,9.399 C6.898,9.799 7.398,10 8,10 C8.5,10 9,9.8 9.398,9.399 C9.798,9 10,8.5 10,8 C10,7.399 9.799,6.899 9.398,6.5 C9,6.2 8.5,6 8,6 C7.398,6 6.898,6.2 6.5,6.5 C6.199,6.899 6,7.399 6,8 C6,8.499 6.199,8.999 6.5,9.399 Z" fill="#286EB7"></path>
            </g>
        </g>
    </g>
</svg>