<?xml version="1.0" encoding="UTF-8"?>
<svg width="16px" height="16px" viewBox="0 0 16 16" version="1.1" xmlns="http://www.w3.org/2000/svg" xmlns:xlink="http://www.w3.org/1999/xlink">
    <!-- Generator: Sketch 52.2 (67145) - http://www.bohemiancoding.com/sketch -->
    <title>被回退</title>
    <desc>Created with Sketch.</desc>
    <g id="基础内容" stroke="none" stroke-width="1" fill="none" fill-rule="evenodd">
        <g id="流程图内图标" transform="translate(-541.000000, -41.000000)">
            <g id="被回退" transform="translate(541.000000, 41.000000)">
                <circle id="Oval-2-Copy-7" fill="#FFFFFF" cx="8" cy="8" r="8"></circle>
                <path d="M7.999,1 C5.999,1 4.399,1.7 2.999,3 C1.7,4.399 1,6 1,8 C1,9.899 1.7,11.5 2.999,12.899 C4.1,14 5.982,15 7.999,15 C9.899,15 11.499,14.3 12.899,12.899 C14.299,11.5 14.999,9.899 14.999,8 C14.999,6 14.3,4.399 12.899,3 C11.499,1.7 9.899,1 7.999,1" id="Shape" fill="#FFFFFF"></path>
                <path d="M8,15 C4.13400675,15 1,11.8659932 1,8 C1,4.13400675 4.13400675,1 8,1 C11.8659932,1 15,4.13400675 15,8 C15,11.8659932 11.8659932,15 8,15 Z M11.1204539,6.94166925 C11.1204539,6.94166925 10.5641391,6.44204715 9.54987793,6.23199534 C8.94768269,6.10729719 7.79565142,6.02058485 7.79565142,6.02058485 L7.79565142,4.00363268 L3,7.40055959 L7.79565142,10.7974722 L7.79565142,8.79889795 C7.79565142,8.79889795 9.53573337,8.71342988 10.5767534,9.19337259 C11.6177734,9.6733296 12.2884604,10.5014374 12.4476261,10.7236745 C12.6067918,10.9459687 12.9993643,11.5799999 12.9993643,11.5799999 C12.9993643,11.5799999 13.0496497,10.5504357 12.7464068,9.40063553 C12.4432068,8.25090686 11.7144256,7.29575536 11.1204539,6.94166925 Z" fill="#FF8300" transform="translate(8.000000, 8.000000) rotate(-180.000000) translate(-8.000000, -8.000000) "></path>
            </g>
        </g>
    </g>
</svg>