<?xml version="1.0" encoding="UTF-8"?>
<svg width="16px" height="16px" viewBox="0 0 16 16" version="1.1" xmlns="http://www.w3.org/2000/svg" xmlns:xlink="http://www.w3.org/1999/xlink">
    <!-- Generator: Sketch 52.2 (67145) - http://www.bohemiancoding.com/sketch -->
    <title>暂存</title>
    <desc>Created with Sketch.</desc>
    <g id="基础内容" stroke="none" stroke-width="1" fill="none" fill-rule="evenodd">
        <g id="流程图内图标" transform="translate(-402.000000, -41.000000)">
            <g id="暂存" transform="translate(402.000000, 41.000000)">
                <circle id="Oval-2-Copy-5" fill="#FFFFFF" cx="8" cy="8" r="8"></circle>
                <path d="M7.999,1 C5.999,1 4.399,1.7 2.999,3 C1.7,4.399 1,6 1,8 C1,9.899 1.7,11.5 2.999,12.899 C4.1,14 5.982,15 7.999,15 C9.899,15 11.499,14.3 12.899,12.899 C14.299,11.5 14.999,9.899 14.999,8 C14.999,6 14.3,4.399 12.899,3 C11.499,1.7 9.899,1 7.999,1" id="Shape" fill="#FFFFFF"></path>
                <path d="M8,1 C6,1 4.4,1.699 3,3.1 C1.7,4.4 1,6.1 1,8 C1,9.899 1.7,11.6 3,13 C4.4,14.3 6,15 8,15 C9.9,15 11.5,14.3 12.9,13 C14.3,11.6 15,9.899 15,8 C15,6.1 14.3,4.399 12.9,3.1 C11.5,1.699 9.9,1 8,1 M11.7,8.799 C11.4,8.999 11.2,9.099 11,9.099 C10.7,9.099 10.5,8.999 10.3,8.799 C10.1,8.599 10,8.299 10,8.099 C10,7.799 10.1,7.599 10.3,7.399 C10.5,7.199 10.7,7.099 11,7.099 C11.2,7.099 11.4,7.199 11.7,7.399 C11.8,7.599 11.9,7.799 12,8.099 C11.9,8.299 11.8,8.599 11.7,8.799 M8.7,7.399 C8.9,7.599 9,7.799 9,8.099 C9,8.299 8.9,8.599 8.7,8.799 C8.5,8.999 8.2,9.099 8,9.099 C7.7,9.099 7.5,8.999 7.2,8.799 C7.1,8.599 7,8.299 7,8.099 C7,7.799 7.1,7.599 7.2,7.399 C7.5,7.199 7.7,7.099 8,7.099 C8.2,7.099 8.5,7.199 8.7,7.399 M6,8.099 C6,8.299 5.9,8.599 5.7,8.799 C5.5,8.999 5.3,9.099 5,9.099 C4.8,9.099 4.5,8.999 4.3,8.799 C4.1,8.599 4,8.299 4,8.099 C4,7.799 4.1,7.599 4.3,7.399 C4.5,7.199 4.8,7.099 5,7.099 C5.3,7.099 5.5,7.199 5.7,7.399 C5.9,7.599 6,7.799 6,8.099" id="暂存待办" fill="#F08300"></path>
            </g>
        </g>
    </g>
</svg>