<?xml version="1.0" encoding="UTF-8"?>
<svg width="44px" height="44px" viewBox="0 0 44 44" version="1.1" xmlns="http://www.w3.org/2000/svg" xmlns:xlink="http://www.w3.org/1999/xlink">
    <!-- Generator: Sketch 52.2 (67145) - http://www.bohemiancoding.com/sketch -->
    <title>ic_vj_node copy</title>
    <desc>Created with Sketch.</desc>
    <defs>
        <path d="M17,33.875 C26.3198052,33.875 33.875,26.3198052 33.875,17 C33.875,7.68019485 26.3198052,0.125 17,0.125 C7.68019485,0.125 0.125,7.68019485 0.125,17 C0.125,26.3198052 7.68019485,33.875 17,33.875 Z" id="path-1"></path>
        <filter x="-20.7%" y="-20.7%" width="141.5%" height="141.5%" filterUnits="objectBoundingBox" id="filter-2">
            <feMorphology radius="1" operator="dilate" in="SourceAlpha" result="shadowSpreadOuter1"></feMorphology>
            <feOffset dx="0" dy="0" in="shadowSpreadOuter1" result="shadowOffsetOuter1"></feOffset>
            <feGaussianBlur stdDeviation="2" in="shadowOffsetOuter1" result="shadowBlurOuter1"></feGaussianBlur>
            <feComposite in="shadowBlurOuter1" in2="SourceAlpha" operator="out" result="shadowBlurOuter1"></feComposite>
            <feColorMatrix values="0 0 0 0 0.960784314   0 0 0 0 0.650980392   0 0 0 0 0.137254902  0 0 0 0.25 0" type="matrix" in="shadowBlurOuter1"></feColorMatrix>
        </filter>
    </defs>
    <g id="基础内容" stroke="none" stroke-width="1" fill="none" fill-rule="evenodd">
        <g id="流程图内图标" transform="translate(-236.000000, -184.000000)">
            <g id="ic_vj_node-copy" transform="translate(241.000000, 189.000000)">
                <g id="Oval" fill-rule="nonzero">
                    <use fill="black" fill-opacity="1" filter="url(#filter-2)" xlink:href="#path-1"></use>
                    <path stroke="#FFFFFF" stroke-width="1" d="M17,34.375 C7.40405247,34.375 -0.375,26.5959475 -0.375,17 C-0.375,7.40405247 7.40405247,-0.375 17,-0.375 C26.5959475,-0.375 34.375,7.40405247 34.375,17 C34.375,26.5959475 26.5959475,34.375 17,34.375 Z" fill="#FFFFFF" fill-rule="evenodd"></path>
                </g>
                <path d="M17,31.875 C25.2152357,31.875 31.875,25.2152357 31.875,17 C31.875,8.78476435 25.2152357,2.125 17,2.125 C8.78476435,2.125 2.125,8.78476435 2.125,17 C2.125,25.2152357 8.78476435,31.875 17,31.875 Z M17,34 C7.61115925,34 0,26.3888407 0,17 C0,7.61115925 7.61115925,0 17,0 C26.3888407,0 34,7.61115925 34,17 C34,26.3888407 26.3888407,34 17,34 Z" id="Oval" fill="#F5A623" fill-rule="nonzero"></path>
                <path d="M8.075,8.075 L25.925,8.075 L25.925,21.759405 L20.57,21.759405 L20.57,23.545 L22.95,23.545 L22.95,24.14 L24.14,24.14 L24.14,25.925 L9.86,25.925 L9.86,24.14 L11.05,24.14 L11.05,23.545 L13.43,23.545 L13.43,21.759405 L8.075,21.759405 L8.075,8.075 Z M9.265,20.57 L24.735,20.57 L24.735,9.265 L9.265,9.265 L9.265,20.57 Z M19.4286321,12.3014479 C19.4286321,12.9507535 19.185775,13.5410313 18.7000607,14.0132535 C18.2143464,14.4854757 17.6679179,14.662559 17.0000607,14.662559 C16.2714893,14.662559 15.7250607,14.4854757 15.3000607,14.0132535 C14.7536321,13.5410313 14.510775,13.0097812 14.5714893,12.3014479 C14.510775,11.6521424 14.7536321,11.0618646 15.3000607,10.6486701 C15.7250607,10.1174201 16.2714893,9.88130903 17.0000607,9.94033681 C17.6679179,9.88130903 18.2750607,10.1174201 18.7000607,10.6486701 C19.185775,11.0618646 19.4286321,11.6521424 19.4286321,12.3014479 Z M13.7820214,16.6694444 C13.8427357,16.6104167 13.90345,16.5513889 13.9641643,16.4923611 C14.8141643,15.6659722 15.7855929,15.2527778 16.9998786,15.2527778 C18.15345,15.2527778 19.1855929,15.6659722 19.9748786,16.4923611 C20.0355929,16.5513889 20.0963071,16.6104167 20.1570214,16.6694444 C20.8248786,17.3777778 21.1891643,18.3222222 21.2498786,19.3256944 L21.2498786,19.975 L12.7498786,19.975 L12.7498786,19.3256944 C12.7498786,18.3222222 13.1141643,17.3777778 13.7820214,16.6694444 Z" id="Combined-Shape" fill="#F5A623"></path>
            </g>
        </g>
    </g>
</svg>