<?xml version="1.0" encoding="UTF-8"?>
<svg width="44px" height="44px" viewBox="0 0 44 44" version="1.1" xmlns="http://www.w3.org/2000/svg" xmlns:xlink="http://www.w3.org/1999/xlink">
    <!-- Generator: Sketch 52.2 (67145) - http://www.bohemiancoding.com/sketch -->
    <title>ic_vj_form</title>
    <desc>Created with Sketch.</desc>
    <defs>
        <path d="M17,33.875 C26.3198052,33.875 33.875,26.3198052 33.875,17 C33.875,7.68019485 26.3198052,0.125 17,0.125 C7.68019485,0.125 0.125,7.68019485 0.125,17 C0.125,26.3198052 7.68019485,33.875 17,33.875 Z" id="path-1"></path>
        <filter x="-20.7%" y="-20.7%" width="141.5%" height="141.5%" filterUnits="objectBoundingBox" id="filter-2">
            <feMorphology radius="1" operator="dilate" in="SourceAlpha" result="shadowSpreadOuter1"></feMorphology>
            <feOffset dx="0" dy="0" in="shadowSpreadOuter1" result="shadowOffsetOuter1"></feOffset>
            <feGaussianBlur stdDeviation="2" in="shadowOffsetOuter1" result="shadowBlurOuter1"></feGaussianBlur>
            <feComposite in="shadowBlurOuter1" in2="SourceAlpha" operator="out" result="shadowBlurOuter1"></feComposite>
            <feColorMatrix values="0 0 0 0 0.294117647   0 0 0 0 0.564705882   0 0 0 0 0.870588235  0 0 0 0.25 0" type="matrix" in="shadowBlurOuter1"></feColorMatrix>
        </filter>
    </defs>
    <g id="基础内容" stroke="none" stroke-width="1" fill="none" fill-rule="evenodd">
        <g id="流程图内图标" transform="translate(-178.000000, -135.000000)">
            <g id="ic_vj_form" transform="translate(183.000000, 140.000000)">
                <g id="Oval" fill-rule="nonzero">
                    <use fill="black" fill-opacity="1" filter="url(#filter-2)" xlink:href="#path-1"></use>
                    <path stroke="#FFFFFF" stroke-width="1" d="M17,34.375 C7.40405247,34.375 -0.375,26.5959475 -0.375,17 C-0.375,7.40405247 7.40405247,-0.375 17,-0.375 C26.5959475,-0.375 34.375,7.40405247 34.375,17 C34.375,26.5959475 26.5959475,34.375 17,34.375 Z" fill="#FFFFFF" fill-rule="evenodd"></path>
                </g>
                <path d="M17,31.875 C25.2152357,31.875 31.875,25.2152357 31.875,17 C31.875,8.78476435 25.2152357,2.125 17,2.125 C8.78476435,2.125 2.125,8.78476435 2.125,17 C2.125,25.2152357 8.78476435,31.875 17,31.875 Z M17,34 C7.61115925,34 0,26.3888407 0,17 C0,7.61115925 7.61115925,0 17,0 C26.3888407,0 34,7.61115925 34,17 C34,26.3888407 26.3888407,34 17,34 Z" id="Oval" fill="#48C0FB" fill-rule="nonzero"></path>
                <path d="M20.57,23.545 L22.95,23.545 L22.95,24.14 L24.14,24.14 L24.14,25.925 L9.86,25.925 L9.86,24.14 L11.05,24.14 L11.05,23.545 L13.43,23.545 L13.43,21.76 L8.075,21.76 L8.075,8.075 L25.925,8.075 L25.925,21.76 L20.57,21.76 L20.57,23.545 Z M20.7485,20.57 L24.735,20.57 L24.735,9.265 L9.265,9.265 L9.265,20.57 L13.2515,20.57 C13.311,20.6295 13.3705,20.6295 13.43,20.6295 L20.57,20.6295 C20.6295,20.6295 20.689,20.6295 20.7485,20.57 Z M20.5698215,11.05 C21.1648215,11.05 21.6408215,11.288 22.0573215,11.7045 C22.4738215,12.0615 22.6523215,12.597 22.6523215,13.1325 C22.6523215,13.7275 22.4738215,14.2035 22.0573215,14.62 C21.6408215,15.0365 21.1648215,15.215 20.5698215,15.215 C20.0343215,15.215 19.6178215,15.0365 19.2013215,14.739 C19.2608215,14.6795 19.2608215,14.62 19.3203215,14.5605 C19.5583215,14.0845 19.6773215,13.668 19.6773215,13.1325 C19.6773215,12.6565 19.5583215,12.1805 19.3203215,11.764 C19.3203215,11.7045 19.2608215,11.645 19.2013215,11.5855 C19.6178215,11.2285 20.0343215,11.05 20.5698215,11.05 Z M14.8580595,11.5854405 C14.7985595,11.6449405 14.7390595,11.7044405 14.7390595,11.7639405 C14.4415595,12.1804405 14.3225595,12.6564405 14.3225595,13.1324405 C14.3225595,13.6679405 14.4415595,14.0844405 14.7390595,14.5604405 C14.7985595,14.6199405 14.7985595,14.6794405 14.8580595,14.7389405 C14.4415595,15.0364405 13.9655595,15.2149405 13.4300595,15.2149405 C12.8945595,15.2149405 12.3590595,15.0364405 12.0020595,14.6199405 C11.5855595,14.2034405 11.3475595,13.7274405 11.3475595,13.1324405 C11.3475595,12.5969405 11.5855595,12.0614405 12.0020595,11.7044405 C12.3590595,11.2879405 12.8945595,11.0499405 13.4300595,11.0499405 C13.9655595,11.0499405 14.4415595,11.2284405 14.8580595,11.5854405 Z M16.9998215,11.05 C17.5948215,11.05 18.0708215,11.288 18.4873215,11.7045 C18.9038215,12.0615 19.0823215,12.597 19.0823215,13.1325 C19.0823215,13.7275 18.9038215,14.2035 18.4873215,14.62 C18.0708215,15.0365 17.5948215,15.215 16.9998215,15.215 C16.4643215,15.215 15.9288215,15.0365 15.5718215,14.62 C15.1553215,14.2035 14.9173215,13.7275 14.9173215,13.1325 C14.9173215,12.597 15.1553215,12.0615 15.5718215,11.7045 C15.9288215,11.288 16.4643215,11.05 16.9998215,11.05 Z M14.5605595,15.988381 C14.3820595,16.166881 14.2035595,16.285881 14.0250595,16.464381 C13.9655595,16.523881 13.9655595,16.523881 13.9655595,16.583381 C13.9060595,16.642881 13.8465595,16.702381 13.8465595,16.761881 L13.8465595,16.702381 C13.1920595,17.416381 12.8350595,18.368381 12.8350595,19.439381 L12.8350595,20.034381 L9.8600595,20.034381 L9.8600595,19.439381 C9.8600595,18.487381 10.1575595,17.713881 10.7525595,17.059381 C10.7525595,16.999881 10.8120595,16.940381 10.8715595,16.880881 C11.5260595,16.166881 12.4185595,15.809881 13.4300595,15.809881 C13.7870595,15.809881 14.2035595,15.869381 14.5605595,15.988381 Z M14.4414405,16.880881 C15.0959405,16.166881 15.9884405,15.809881 16.9999405,15.809881 C17.9519405,15.809881 18.7849405,16.166881 19.4989405,16.880881 C19.5584405,16.940381 19.6179405,16.999881 19.6774405,17.059381 C20.2129405,17.713881 20.5104405,18.487381 20.5699405,19.439381 L20.5699405,20.034381 L13.4299405,20.034381 L13.4299405,19.439381 C13.4299405,18.487381 13.7274405,17.713881 14.3224405,17.059381 C14.3224405,16.999881 14.3819405,16.940381 14.4414405,16.880881 Z M19.3798215,16.0479405 C19.7368215,15.8694405 20.1533215,15.8099405 20.5698215,15.8099405 C21.5218215,15.8099405 22.3548215,16.1669405 23.0688215,16.8809405 C23.1283215,16.9404405 23.1878215,16.9999405 23.2473215,17.0594405 C23.7828215,17.7139405 24.0803215,18.4874405 24.1398215,19.4394405 L24.1398215,20.0344405 L21.1648215,20.0344405 L21.1648215,19.4394405 C21.1053215,18.3684405 20.8078215,17.4164405 20.0938215,16.7024405 L20.0938215,16.6429405 L19.9153215,16.4644405 C19.7368215,16.2859405 19.5583215,16.1669405 19.3798215,16.0479405 Z" id="Combined-Shape" fill="#6EA4D9"></path>
            </g>
        </g>
    </g>
</svg>